<?xml version="1.0" encoding="utf-8" standalone="no"?>
<!DOCTYPE svg PUBLIC "-//W3C//DTD SVG 1.1//EN"
  "http://www.w3.org/Graphics/SVG/1.1/DTD/svg11.dtd">
<svg xmlns:xlink="http://www.w3.org/1999/xlink" width="1365.158209pt" height="871.862641pt" viewBox="0 0 1365.158209 871.862641" xmlns="http://www.w3.org/2000/svg" version="1.1">
 <metadata>
  <rdf:RDF xmlns:dc="http://purl.org/dc/elements/1.1/" xmlns:cc="http://creativecommons.org/ns#" xmlns:rdf="http://www.w3.org/1999/02/22-rdf-syntax-ns#">
   <cc:Work>
    <dc:type rdf:resource="http://purl.org/dc/dcmitype/StillImage"/>
    <dc:date>2025-10-02T11:32:11.372523</dc:date>
    <dc:format>image/svg+xml</dc:format>
    <dc:creator>
     <cc:Agent>
      <dc:title>Matplotlib v3.10.1, https://matplotlib.org/</dc:title>
     </cc:Agent>
    </dc:creator>
   </cc:Work>
  </rdf:RDF>
 </metadata>
 <defs>
  <style type="text/css">*{stroke-linejoin: round; stroke-linecap: butt}</style>
 </defs>
 <g id="figure_1">
  <g id="patch_1">
   <path d="M 0 871.862641 
L 1365.158209 871.862641 
L 1365.158209 0 
L 0 0 
z
" style="fill: none"/>
  </g>
  <g id="axes_1">
   <g id="patch_2">
    <path d="M 773.206209 435.931321 
C 773.206209 392.249436 764.60183 348.992303 747.885496 308.635504 
C 731.169163 268.278705 706.665965 231.607078 675.778208 200.719321 
C 644.890452 169.831564 608.218825 145.328367 567.862026 128.612033 
C 527.505227 111.895699 484.248093 103.291321 440.566209 103.291321 
C 396.884324 103.291321 353.627191 111.895699 313.270392 128.612033 
C 272.913593 145.328367 236.241966 169.831564 205.354209 200.719321 
C 174.466452 231.607078 149.963255 268.278705 133.246921 308.635504 
C 116.530587 348.992303 107.926209 392.249436 107.926209 435.931321 
C 107.926209 479.613205 116.530587 522.870339 133.246921 563.227138 
C 149.963255 603.583937 174.466452 640.255564 205.354209 671.14332 
C 236.241966 702.031077 272.913593 726.534275 313.270392 743.250608 
C 353.627191 759.966942 396.884324 768.571321 440.566209 768.571321 
C 484.248093 768.571321 527.505227 759.966942 567.862026 743.250608 
C 608.218825 726.534275 644.890452 702.031077 675.778208 671.14332 
C 706.665965 640.255564 731.169163 603.583937 747.885496 563.227138 
C 764.60183 522.870339 773.206209 479.613205 773.206209 435.931321 
M 440.566209 435.931321 
C 440.566209 435.931321 440.566209 435.931321 440.566209 435.931321 
C 440.566209 435.931321 440.566209 435.931321 440.566209 435.931321 
C 440.566209 435.931321 440.566209 435.931321 440.566209 435.931321 
C 440.566209 435.931321 440.566209 435.931321 440.566209 435.931321 
C 440.566209 435.931321 440.566209 435.931321 440.566209 435.931321 
C 440.566209 435.931321 440.566209 435.931321 440.566209 435.931321 
C 440.566209 435.931321 440.566209 435.931321 440.566209 435.931321 
C 440.566209 435.931321 440.566209 435.931321 440.566209 435.931321 
C 440.566209 435.931321 440.566209 435.931321 440.566209 435.931321 
C 440.566209 435.931321 440.566209 435.931321 440.566209 435.931321 
C 440.566209 435.931321 440.566209 435.931321 440.566209 435.931321 
C 440.566209 435.931321 440.566209 435.931321 440.566209 435.931321 
C 440.566209 435.931321 440.566209 435.931321 440.566209 435.931321 
C 440.566209 435.931321 440.566209 435.931321 440.566209 435.931321 
C 440.566209 435.931321 440.566209 435.931321 440.566209 435.931321 
C 440.566209 435.931321 440.566209 435.931321 440.566209 435.931321 
z
" style="fill: #ffffff"/>
   </g>
   <g id="patch_3">
    <path d="M 710.140484 435.931321 
L 583.301986 316.161782 
L 447.621738 395.917425 
L 308.862157 207.813212 
L 206.222751 350.637277 
L 243.846537 507.531426 
L 282.913422 708.993957 
L 471.563119 611.723536 
L 664.41062 623.759084 
z
" clip-path="url(#pbe9c94e3c6)" style="fill: #a56eff; opacity: 0.05; stroke: #a56eff; stroke-linejoin: miter"/>
   </g>
   <g id="patch_4">
    <path d="M 724.703438 435.931321 
L 669.772372 243.604513 
L 470.920093 263.785888 
L 339.316368 260.561453 
L 269.399631 373.631781 
L 265.231946 499.747773 
L 291.955169 693.333192 
L 458.035132 535.002509 
L 679.244286 636.206008 
z
" clip-path="url(#pbe9c94e3c6)" style="fill: #003a6d; opacity: 0.05; stroke: #003a6d; stroke-linejoin: miter"/>
   </g>
   <g id="patch_5">
    <path d="M 692.216849 435.931321 
L 637.683753 270.530062 
L 472.888968 252.619843 
L 402.776819 370.478178 
L 228.734964 358.831053 
L 346.868423 470.034526 
L 391.711811 520.549619 
L 495.569432 747.870098 
L 602.109221 571.482003 
z
" clip-path="url(#pbe9c94e3c6)" style="fill: #009d9a; opacity: 0.05; stroke: #009d9a; stroke-linejoin: miter"/>
   </g>
   <g id="patch_6">
    <path d="M 663.01626 435.931321 
L 490.751652 393.820734 
L 467.474562 283.326467 
L 288.445926 172.451263 
L 345.497254 401.329051 
L 228.87675 512.979982 
L 286.006651 703.636327 
L 463.712195 567.198732 
L 509.69548 493.937666 
z
" clip-path="url(#pbe9c94e3c6)" style="fill: #9f1853; opacity: 0.05; stroke: #9f1853; stroke-linejoin: miter"/>
   </g>
   <g id="patch_7">
    <path d="M 704.165939 435.931321 
L 527.906895 362.643783 
L 443.191769 421.041027 
L 323.153519 232.566576 
L 331.387487 396.193516 
L 223.669868 514.875133 
L 292.609506 692.199847 
L 473.424195 622.278221 
L 622.134671 588.28535 
z
" clip-path="url(#pbe9c94e3c6)" style="fill: #707070; opacity: 0.05; stroke: #707070; stroke-linejoin: miter"/>
   </g>
   <g id="patch_8">
    <path d="M 542.703858 435.931321 
L 550.200042 343.937612 
L 461.075718 319.616115 
L 325.195142 236.102771 
L 293.814285 382.517989 
L 263.651286 500.323087 
L 292.252595 692.818035 
L 470.43709 605.337509 
L 613.531144 581.066134 
z
" clip-path="url(#pbe9c94e3c6)" style="fill: #0f62fe; opacity: 0.05; stroke: #0f62fe; stroke-linejoin: miter"/>
   </g>
   <g id="patch_9">
    <path d="M 626.272807 435.931321 
L 580.262012 318.712624 
L 464.357176 301.006039 
L 315.667567 219.600528 
L 319.417965 391.836966 
L 193.637315 525.806088 
L 290.765466 695.393819 
L 474.690978 629.462502 
L 654.917074 615.793052 
z
" clip-path="url(#pbe9c94e3c6)" style="fill: #0f62fe; opacity: 0.05; stroke: #0f62fe; stroke-linejoin: miter"/>
   </g>
   <g id="patch_10">
    <path d="M 758.086209 435.931321 
L 628.226054 278.466014 
L 488.14775 166.082991 
L 308.862157 207.813212 
L 190.606884 344.953567 
L 167.695883 535.247997 
L 284.519522 706.21211 
L 483.90252 681.703756 
L 658.18048 618.531376 
z
" clip-path="url(#pbe9c94e3c6)" style="fill: #0f62fe; opacity: 0.05; stroke: #0f62fe; stroke-linejoin: miter"/>
   </g>
   <g id="patch_11">
    <path d="M 752.410391 435.931321 
L 606.946233 296.321904 
L 477.48301 226.565737 
L 300.185259 192.784383 
L 142.649528 327.498517 
L 143.335112 544.114592 
L 283.567759 707.860612 
L 489.626501 714.166064 
L 658.477154 618.780314 
z
" clip-path="url(#pbe9c94e3c6)" style="fill: #0f62fe; opacity: 0.05; stroke: #0f62fe; stroke-linejoin: miter"/>
   </g>
   <g id="matplotlib.axis_1">
    <g id="xtick_1">
     <g id="line2d_1">
      <path d="M 440.566209 435.931321 
L 773.206209 435.931321 
" clip-path="url(#pbe9c94e3c6)" style="fill: none; stroke: #b0b0b0; stroke-width: 0.8; stroke-linecap: square"/>
     </g>
     <g id="text_1">
      <!-- CTM-SS  -->
      <g transform="translate(793.855159 428.259321) scale(0.28 -0.28)">
       <defs>
        <path id="IBMPlexSans-Regular-43" d="M 2170 -77 
Q 1606 -77 1203 182 
Q 800 442 585 950 
Q 371 1459 371 2208 
Q 371 2957 585 3478 
Q 800 4000 1203 4272 
Q 1606 4544 2170 4544 
Q 2726 4544 3110 4288 
Q 3494 4032 3706 3565 
L 3270 3302 
Q 3136 3648 2861 3856 
Q 2586 4064 2170 4064 
Q 1594 4064 1270 3645 
Q 947 3226 947 2541 
L 947 1875 
Q 947 1190 1270 796 
Q 1594 403 2170 403 
Q 2598 403 2886 624 
Q 3174 845 3309 1210 
L 3738 941 
Q 3526 474 3126 198 
Q 2726 -77 2170 -77 
z
" transform="scale(0.015625)"/>
        <path id="IBMPlexSans-Regular-54" d="M 3520 3994 
L 2099 3994 
L 2099 0 
L 1562 0 
L 1562 3994 
L 141 3994 
L 141 4467 
L 3520 4467 
L 3520 3994 
z
" transform="scale(0.015625)"/>
        <path id="IBMPlexSans-Regular-4d" d="M 595 0 
L 595 4467 
L 1312 4467 
L 2157 2886 
L 2592 2061 
L 2624 2061 
L 3066 2886 
L 3910 4467 
L 4602 4467 
L 4602 0 
L 4077 0 
L 4077 3014 
L 4077 3763 
L 4045 3763 
L 3667 3014 
L 2598 1069 
L 1530 3014 
L 1152 3763 
L 1120 3763 
L 1120 3014 
L 1120 0 
L 595 0 
z
" transform="scale(0.015625)"/>
        <path id="IBMPlexSans-Regular-2d" d="M 2112 1670 
L 442 1670 
L 442 2221 
L 2112 2221 
L 2112 1670 
z
" transform="scale(0.015625)"/>
        <path id="IBMPlexSans-Regular-53" d="M 1850 -77 
Q 1312 -77 925 131 
Q 538 339 269 704 
L 666 1037 
Q 902 723 1190 560 
Q 1478 397 1869 397 
Q 2349 397 2601 627 
Q 2854 858 2854 1242 
Q 2854 1453 2771 1600 
Q 2688 1747 2505 1846 
Q 2323 1946 2029 2010 
L 1664 2093 
Q 1261 2189 979 2342 
Q 698 2496 550 2739 
Q 403 2982 403 3322 
Q 403 3718 588 3990 
Q 774 4262 1110 4403 
Q 1446 4544 1882 4544 
Q 2387 4544 2748 4358 
Q 3110 4173 3360 3814 
L 2957 3520 
Q 2778 3776 2512 3923 
Q 2246 4070 1856 4070 
Q 1427 4070 1180 3884 
Q 934 3699 934 3341 
Q 934 3130 1027 2989 
Q 1120 2848 1305 2755 
Q 1491 2662 1773 2598 
L 2138 2515 
Q 2573 2419 2848 2252 
Q 3123 2086 3254 1843 
Q 3386 1600 3386 1267 
Q 3386 858 3200 557 
Q 3014 256 2672 89 
Q 2330 -77 1850 -77 
z
" transform="scale(0.015625)"/>
        <path id="IBMPlexSans-Regular-20" transform="scale(0.015625)"/>
       </defs>
       <use xlink:href="#IBMPlexSans-Regular-43"/>
       <use xlink:href="#IBMPlexSans-Regular-54" transform="translate(62.099991 0)"/>
       <use xlink:href="#IBMPlexSans-Regular-4d" transform="translate(119.299988 0)"/>
       <use xlink:href="#IBMPlexSans-Regular-2d" transform="translate(200.499969 0)"/>
       <use xlink:href="#IBMPlexSans-Regular-53" transform="translate(240.399963 0)"/>
       <use xlink:href="#IBMPlexSans-Regular-53" transform="translate(298.499954 0)"/>
       <use xlink:href="#IBMPlexSans-Regular-20" transform="translate(356.599945 0)"/>
      </g>
      <!-- (55.8%) -->
      <g transform="translate(795.714534 458.723321) scale(0.28 -0.28)">
       <defs>
        <path id="IBMPlexSans-Regular-28" d="M 531 1997 
Q 531 2618 684 3165 
Q 838 3712 1100 4150 
Q 1363 4589 1690 4864 
L 2176 4864 
Q 1824 4544 1561 4109 
Q 1299 3674 1155 3194 
Q 1011 2714 1011 2266 
L 1011 1715 
Q 1011 1267 1158 784 
Q 1306 301 1568 -134 
Q 1830 -570 2176 -877 
L 1690 -877 
Q 1376 -608 1110 -173 
Q 845 262 688 819 
Q 531 1376 531 1997 
z
" transform="scale(0.015625)"/>
        <path id="IBMPlexSans-Regular-35" d="M 3187 4467 
L 3187 3994 
L 1229 3994 
L 1101 2291 
L 1146 2291 
Q 1254 2445 1376 2553 
Q 1498 2662 1664 2723 
Q 1830 2784 2061 2784 
Q 2445 2784 2745 2617 
Q 3046 2451 3219 2144 
Q 3392 1837 3392 1402 
Q 3392 966 3213 633 
Q 3034 301 2698 112 
Q 2362 -77 1888 -77 
Q 1517 -77 1254 35 
Q 992 147 809 320 
Q 627 493 493 685 
L 896 992 
Q 1069 730 1277 566 
Q 1485 403 1888 403 
Q 2342 403 2582 646 
Q 2822 890 2822 1331 
L 2822 1395 
Q 2822 1837 2582 2080 
Q 2342 2323 1888 2323 
Q 1581 2323 1405 2211 
Q 1229 2099 1088 1946 
L 634 2010 
L 794 4467 
L 3187 4467 
z
" transform="scale(0.015625)"/>
        <path id="IBMPlexSans-Regular-2e" d="M 870 -77 
Q 672 -77 576 28 
Q 480 134 480 294 
L 480 378 
Q 480 544 576 646 
Q 672 749 870 749 
Q 1075 749 1168 646 
Q 1261 544 1261 378 
L 1261 294 
Q 1261 134 1168 28 
Q 1075 -77 870 -77 
z
" transform="scale(0.015625)"/>
        <path id="IBMPlexSans-Regular-38" d="M 1920 -77 
Q 1414 -77 1068 92 
Q 723 262 547 556 
Q 371 851 371 1216 
Q 371 1670 620 1942 
Q 870 2214 1274 2323 
L 1274 2374 
Q 922 2496 714 2768 
Q 506 3040 506 3424 
Q 506 3936 880 4240 
Q 1254 4544 1920 4544 
Q 2586 4544 2960 4240 
Q 3334 3936 3334 3424 
Q 3334 3040 3126 2768 
Q 2918 2496 2566 2374 
L 2566 2323 
Q 2970 2214 3219 1942 
Q 3469 1670 3469 1216 
Q 3469 851 3293 556 
Q 3117 262 2774 92 
Q 2432 -77 1920 -77 
z
M 1920 390 
Q 2387 390 2643 601 
Q 2899 813 2899 1190 
L 2899 1325 
Q 2899 1702 2643 1913 
Q 2387 2125 1920 2125 
Q 1453 2125 1197 1913 
Q 941 1702 941 1325 
L 941 1190 
Q 941 813 1197 601 
Q 1453 390 1920 390 
z
M 1920 2573 
Q 2336 2573 2557 2755 
Q 2778 2938 2778 3277 
L 2778 3373 
Q 2778 3712 2557 3894 
Q 2336 4077 1920 4077 
Q 1504 4077 1283 3894 
Q 1062 3712 1062 3373 
L 1062 3277 
Q 1062 2938 1283 2755 
Q 1504 2573 1920 2573 
z
" transform="scale(0.015625)"/>
        <path id="IBMPlexSans-Regular-25" d="M 1664 0 
L 1171 0 
L 4269 4467 
L 4762 4467 
L 1664 0 
z
M 1427 2010 
Q 1107 2010 880 2157 
Q 653 2304 534 2585 
Q 416 2867 416 3277 
Q 416 3686 534 3968 
Q 653 4250 880 4397 
Q 1107 4544 1427 4544 
Q 1754 4544 1978 4397 
Q 2202 4250 2320 3968 
Q 2438 3686 2438 3277 
Q 2438 2867 2320 2585 
Q 2202 2304 1978 2157 
Q 1754 2010 1427 2010 
z
M 1427 2342 
Q 1613 2342 1734 2425 
Q 1856 2509 1917 2675 
Q 1978 2842 1978 3085 
L 1978 3469 
Q 1978 3712 1917 3878 
Q 1856 4045 1734 4128 
Q 1613 4211 1427 4211 
Q 1242 4211 1120 4128 
Q 998 4045 937 3878 
Q 877 3712 877 3469 
L 877 3085 
Q 877 2842 937 2675 
Q 998 2509 1120 2425 
Q 1242 2342 1427 2342 
z
M 4506 -77 
Q 4186 -77 3958 70 
Q 3731 218 3612 499 
Q 3494 781 3494 1190 
Q 3494 1600 3612 1881 
Q 3731 2163 3958 2310 
Q 4186 2458 4506 2458 
Q 4832 2458 5056 2310 
Q 5280 2163 5398 1881 
Q 5517 1600 5517 1190 
Q 5517 781 5398 499 
Q 5280 218 5056 70 
Q 4832 -77 4506 -77 
z
M 4506 256 
Q 4691 256 4812 339 
Q 4934 422 4995 588 
Q 5056 755 5056 998 
L 5056 1382 
Q 5056 1626 4995 1792 
Q 4934 1958 4812 2041 
Q 4691 2125 4506 2125 
Q 4320 2125 4198 2041 
Q 4077 1958 4016 1792 
Q 3955 1626 3955 1382 
L 3955 998 
Q 3955 755 4016 588 
Q 4077 422 4198 339 
Q 4320 256 4506 256 
z
" transform="scale(0.015625)"/>
        <path id="IBMPlexSans-Regular-29" d="M 1613 1997 
Q 1613 1376 1456 819 
Q 1299 262 1036 -173 
Q 774 -608 454 -877 
L -32 -877 
Q 314 -570 576 -134 
Q 838 301 985 784 
Q 1133 1267 1133 1715 
L 1133 2266 
Q 1133 2714 989 3194 
Q 845 3674 585 4109 
Q 326 4544 -32 4864 
L 454 4864 
Q 781 4589 1043 4150 
Q 1306 3712 1459 3165 
Q 1613 2618 1613 1997 
z
" transform="scale(0.015625)"/>
       </defs>
       <use xlink:href="#IBMPlexSans-Regular-28"/>
       <use xlink:href="#IBMPlexSans-Regular-35" transform="translate(33.499985 0)"/>
       <use xlink:href="#IBMPlexSans-Regular-35" transform="translate(93.499969 0)"/>
       <use xlink:href="#IBMPlexSans-Regular-2e" transform="translate(153.499954 0)"/>
       <use xlink:href="#IBMPlexSans-Regular-38" transform="translate(180.699951 0)"/>
       <use xlink:href="#IBMPlexSans-Regular-25" transform="translate(240.699936 0)"/>
       <use xlink:href="#IBMPlexSans-Regular-29" transform="translate(333.399918 0)"/>
      </g>
     </g>
    </g>
    <g id="xtick_2">
     <g id="line2d_2">
      <path d="M 440.566209 435.931321 
L 695.383232 222.11445 
" clip-path="url(#pbe9c94e3c6)" style="fill: none; stroke: #b0b0b0; stroke-width: 0.8; stroke-linecap: square"/>
     </g>
     <g id="text_2">
      <!-- SpaceNet7  -->
      <g transform="translate(679.314919 166.956387) scale(0.28 -0.28)">
       <defs>
        <path id="IBMPlexSans-Regular-70" d="M 544 -1280 
L 544 3302 
L 1056 3302 
L 1056 2765 
L 1082 2765 
Q 1210 3078 1459 3228 
Q 1709 3379 2048 3379 
Q 2464 3379 2765 3168 
Q 3066 2957 3229 2569 
Q 3392 2182 3392 1651 
Q 3392 1126 3229 736 
Q 3066 346 2765 134 
Q 2464 -77 2048 -77 
Q 1709 -77 1469 76 
Q 1229 230 1082 538 
L 1056 538 
L 1056 -1280 
L 544 -1280 
z
M 1907 384 
Q 2342 384 2592 656 
Q 2842 928 2842 1370 
L 2842 1933 
Q 2842 2374 2592 2646 
Q 2342 2918 1907 2918 
Q 1677 2918 1481 2835 
Q 1286 2752 1171 2611 
Q 1056 2470 1056 2285 
L 1056 1056 
Q 1056 845 1171 694 
Q 1286 544 1481 464 
Q 1677 384 1907 384 
z
" transform="scale(0.015625)"/>
        <path id="IBMPlexSans-Regular-61" d="M 3232 0 
L 2944 0 
Q 2739 0 2611 86 
Q 2483 173 2425 326 
Q 2368 480 2368 678 
L 2368 723 
L 2566 538 
L 2342 538 
Q 2240 237 1987 80 
Q 1734 -77 1389 -77 
Q 864 -77 573 192 
Q 282 461 282 922 
Q 282 1235 435 1449 
Q 589 1664 899 1776 
Q 1210 1888 1690 1888 
L 2342 1888 
L 2342 2214 
Q 2342 2566 2150 2752 
Q 1958 2938 1562 2938 
Q 1267 2938 1062 2803 
Q 858 2669 723 2445 
L 416 2733 
Q 550 2995 844 3187 
Q 1139 3379 1587 3379 
Q 2182 3379 2518 3084 
Q 2854 2790 2854 2266 
L 2854 448 
L 3232 448 
L 3232 0 
z
M 2342 1504 
L 1664 1504 
Q 1229 1504 1024 1376 
Q 819 1248 819 1005 
L 819 870 
Q 819 627 998 492 
Q 1178 358 1472 358 
Q 1728 358 1923 438 
Q 2118 518 2230 656 
Q 2342 794 2342 960 
L 2342 1504 
z
" transform="scale(0.015625)"/>
        <path id="IBMPlexSans-Regular-63" d="M 1773 -77 
Q 1075 -77 688 390 
Q 301 858 301 1651 
Q 301 2445 688 2912 
Q 1075 3379 1773 3379 
Q 2266 3379 2566 3161 
Q 2867 2944 3008 2605 
L 2579 2387 
Q 2490 2643 2282 2784 
Q 2074 2925 1773 2925 
Q 1318 2925 1084 2646 
Q 851 2368 851 1933 
L 851 1370 
Q 851 941 1084 659 
Q 1318 378 1773 378 
Q 2086 378 2310 525 
Q 2534 672 2669 954 
L 3040 704 
Q 2880 352 2563 137 
Q 2246 -77 1773 -77 
z
" transform="scale(0.015625)"/>
        <path id="IBMPlexSans-Regular-65" d="M 1786 -77 
Q 1338 -77 1005 137 
Q 672 352 486 739 
Q 301 1126 301 1651 
Q 301 2176 486 2563 
Q 672 2950 1005 3164 
Q 1338 3379 1786 3379 
Q 2227 3379 2547 3171 
Q 2867 2963 3040 2598 
Q 3213 2234 3213 1766 
L 3213 1523 
L 838 1523 
L 838 1370 
Q 838 941 1097 656 
Q 1357 371 1818 371 
Q 2131 371 2364 518 
Q 2598 666 2726 941 
L 3091 678 
Q 2931 346 2592 134 
Q 2253 -77 1786 -77 
z
M 1786 2950 
Q 1510 2950 1296 2822 
Q 1082 2694 960 2467 
Q 838 2240 838 1952 
L 838 1907 
L 2662 1907 
L 2662 1978 
Q 2662 2272 2553 2489 
Q 2445 2707 2246 2828 
Q 2048 2950 1786 2950 
z
" transform="scale(0.015625)"/>
        <path id="IBMPlexSans-Regular-4e" d="M 3309 0 
L 1677 2726 
L 1139 3718 
L 1120 3718 
L 1120 2726 
L 1120 0 
L 595 0 
L 595 4467 
L 1216 4467 
L 2848 1741 
L 3386 749 
L 3405 749 
L 3405 1741 
L 3405 4467 
L 3930 4467 
L 3930 0 
L 3309 0 
z
" transform="scale(0.015625)"/>
        <path id="IBMPlexSans-Regular-74" d="M 1914 0 
L 1274 0 
Q 1011 0 870 153 
Q 730 307 730 544 
L 730 2854 
L 186 2854 
L 186 3302 
L 493 3302 
Q 659 3302 720 3369 
Q 781 3437 781 3603 
L 781 4218 
L 1242 4218 
L 1242 3302 
L 1965 3302 
L 1965 2854 
L 1242 2854 
L 1242 448 
L 1914 448 
L 1914 0 
z
" transform="scale(0.015625)"/>
        <path id="IBMPlexSans-Regular-37" d="M 1696 0 
L 1120 0 
L 2829 4006 
L 922 4006 
L 922 3174 
L 442 3174 
L 442 4467 
L 3373 4467 
L 3373 3994 
L 1696 0 
z
" transform="scale(0.015625)"/>
       </defs>
       <use xlink:href="#IBMPlexSans-Regular-53"/>
       <use xlink:href="#IBMPlexSans-Regular-70" transform="translate(58.099991 0)"/>
       <use xlink:href="#IBMPlexSans-Regular-61" transform="translate(116.099976 0)"/>
       <use xlink:href="#IBMPlexSans-Regular-63" transform="translate(169.499969 0)"/>
       <use xlink:href="#IBMPlexSans-Regular-65" transform="translate(219.799957 0)"/>
       <use xlink:href="#IBMPlexSans-Regular-4e" transform="translate(274.699951 0)"/>
       <use xlink:href="#IBMPlexSans-Regular-65" transform="translate(345.399933 0)"/>
       <use xlink:href="#IBMPlexSans-Regular-74" transform="translate(400.299927 0)"/>
       <use xlink:href="#IBMPlexSans-Regular-37" transform="translate(435.399918 0)"/>
       <use xlink:href="#IBMPlexSans-Regular-20" transform="translate(495.399902 0)"/>
      </g>
      <!-- (63.0%) -->
      <g transform="translate(700.608044 197.420387) scale(0.28 -0.28)">
       <defs>
        <path id="IBMPlexSans-Regular-36" d="M 1926 -77 
Q 1466 -77 1130 131 
Q 794 339 611 723 
Q 429 1107 429 1638 
Q 429 2138 573 2573 
Q 717 3008 957 3373 
Q 1197 3738 1475 4016 
Q 1754 4294 2022 4467 
L 2714 4467 
Q 2240 4122 1897 3786 
Q 1555 3450 1331 3059 
Q 1107 2669 986 2150 
L 1018 2138 
Q 1126 2323 1270 2467 
Q 1414 2611 1619 2694 
Q 1824 2778 2093 2778 
Q 2477 2778 2774 2611 
Q 3072 2445 3241 2134 
Q 3411 1824 3411 1402 
Q 3411 966 3225 630 
Q 3040 294 2707 108 
Q 2374 -77 1926 -77 
z
M 1920 390 
Q 2214 390 2422 499 
Q 2630 608 2742 819 
Q 2854 1030 2854 1331 
L 2854 1382 
Q 2854 1683 2742 1894 
Q 2630 2106 2422 2214 
Q 2214 2323 1920 2323 
Q 1626 2323 1418 2214 
Q 1210 2106 1098 1894 
Q 986 1683 986 1382 
L 986 1331 
Q 986 1030 1098 819 
Q 1210 608 1418 499 
Q 1626 390 1920 390 
z
" transform="scale(0.015625)"/>
        <path id="IBMPlexSans-Regular-33" d="M 1184 2573 
L 1670 2573 
Q 2125 2573 2352 2784 
Q 2579 2995 2579 3315 
L 2579 3360 
Q 2579 3712 2358 3888 
Q 2138 4064 1779 4064 
Q 1434 4064 1216 3913 
Q 998 3763 858 3507 
L 461 3814 
Q 576 3994 749 4160 
Q 922 4326 1178 4435 
Q 1434 4544 1792 4544 
Q 2170 4544 2477 4413 
Q 2784 4282 2966 4032 
Q 3149 3782 3149 3418 
Q 3149 2989 2899 2726 
Q 2650 2464 2291 2374 
L 2291 2349 
Q 2534 2304 2748 2166 
Q 2963 2029 3097 1795 
Q 3232 1562 3232 1222 
Q 3232 838 3043 547 
Q 2854 256 2512 89 
Q 2170 -77 1715 -77 
Q 1331 -77 1059 35 
Q 787 147 598 320 
Q 410 493 269 685 
L 672 992 
Q 845 730 1072 566 
Q 1299 403 1709 403 
Q 2182 403 2425 620 
Q 2669 838 2669 1229 
L 2669 1280 
Q 2669 1677 2425 1891 
Q 2182 2106 1709 2106 
L 1184 2106 
L 1184 2573 
z
" transform="scale(0.015625)"/>
        <path id="IBMPlexSans-Regular-30" d="M 1920 -77 
Q 1389 -77 1046 198 
Q 704 474 544 989 
Q 384 1504 384 2234 
Q 384 2963 544 3481 
Q 704 4000 1046 4272 
Q 1389 4544 1920 4544 
Q 2458 4544 2797 4272 
Q 3136 4000 3296 3481 
Q 3456 2963 3456 2234 
Q 3456 1504 3296 989 
Q 3136 474 2797 198 
Q 2458 -77 1920 -77 
z
M 1920 390 
Q 2272 390 2483 579 
Q 2694 768 2793 1104 
Q 2893 1440 2893 1869 
L 2893 2598 
Q 2893 3034 2793 3366 
Q 2694 3699 2483 3888 
Q 2272 4077 1920 4077 
Q 1574 4077 1360 3888 
Q 1146 3699 1046 3366 
Q 947 3034 947 2598 
L 947 1869 
Q 947 1440 1046 1104 
Q 1146 768 1360 579 
Q 1574 390 1920 390 
z
" transform="scale(0.015625)"/>
       </defs>
       <use xlink:href="#IBMPlexSans-Regular-28"/>
       <use xlink:href="#IBMPlexSans-Regular-36" transform="translate(33.499985 0)"/>
       <use xlink:href="#IBMPlexSans-Regular-33" transform="translate(93.499969 0)"/>
       <use xlink:href="#IBMPlexSans-Regular-2e" transform="translate(153.499954 0)"/>
       <use xlink:href="#IBMPlexSans-Regular-30" transform="translate(180.699951 0)"/>
       <use xlink:href="#IBMPlexSans-Regular-25" transform="translate(240.699936 0)"/>
       <use xlink:href="#IBMPlexSans-Regular-29" transform="translate(333.399918 0)"/>
      </g>
     </g>
    </g>
    <g id="xtick_3">
     <g id="line2d_3">
      <path d="M 440.566209 435.931321 
L 498.328538 108.34487 
" clip-path="url(#pbe9c94e3c6)" style="fill: none; stroke: #b0b0b0; stroke-width: 0.8; stroke-linecap: square"/>
     </g>
     <g id="text_3">
      <!-- AI4Farms  -->
      <g transform="translate(445.398395 27.92) scale(0.28 -0.28)">
       <defs>
        <path id="IBMPlexSans-Regular-41" d="M 3955 0 
L 3392 0 
L 2944 1318 
L 1139 1318 
L 691 0 
L 147 0 
L 1709 4467 
L 2394 4467 
L 3955 0 
z
M 2810 1792 
L 2246 3411 
L 2054 3968 
L 2022 3968 
L 1830 3411 
L 1267 1792 
L 2810 1792 
z
" transform="scale(0.015625)"/>
        <path id="IBMPlexSans-Regular-49" d="M 2176 0 
L 384 0 
L 384 448 
L 1011 448 
L 1011 4019 
L 384 4019 
L 384 4467 
L 2176 4467 
L 2176 4019 
L 1549 4019 
L 1549 448 
L 2176 448 
L 2176 0 
z
" transform="scale(0.015625)"/>
        <path id="IBMPlexSans-Regular-34" d="M 2912 0 
L 2400 0 
L 2400 877 
L 243 877 
L 243 1350 
L 2112 4467 
L 2912 4467 
L 2912 1325 
L 3558 1325 
L 3558 877 
L 2912 877 
L 2912 0 
z
M 2368 4051 
L 749 1325 
L 2400 1325 
L 2400 4051 
L 2368 4051 
z
" transform="scale(0.015625)"/>
        <path id="IBMPlexSans-Regular-46" d="M 1133 0 
L 595 0 
L 595 4467 
L 3258 4467 
L 3258 3994 
L 1133 3994 
L 1133 2496 
L 3072 2496 
L 3072 2022 
L 1133 2022 
L 1133 0 
z
" transform="scale(0.015625)"/>
        <path id="IBMPlexSans-Regular-72" d="M 1056 0 
L 544 0 
L 544 3302 
L 1056 3302 
L 1056 2694 
L 1088 2694 
Q 1146 2854 1267 2992 
Q 1389 3130 1581 3216 
Q 1773 3302 2042 3302 
L 2240 3302 
L 2240 2790 
L 1939 2790 
Q 1664 2790 1465 2716 
Q 1267 2643 1161 2521 
Q 1056 2400 1056 2240 
L 1056 0 
z
" transform="scale(0.015625)"/>
        <path id="IBMPlexSans-Regular-6d" d="M 1056 0 
L 544 0 
L 544 3302 
L 1056 3302 
L 1056 2765 
L 1082 2765 
Q 1190 3021 1388 3200 
Q 1587 3379 1971 3379 
Q 2298 3379 2573 3222 
Q 2848 3066 2982 2707 
L 2995 2707 
Q 3085 2976 3331 3177 
Q 3578 3379 4000 3379 
Q 4506 3379 4790 3049 
Q 5075 2720 5075 2118 
L 5075 0 
L 4563 0 
L 4563 2029 
Q 4563 2464 4390 2691 
Q 4218 2918 3840 2918 
Q 3642 2918 3462 2851 
Q 3283 2784 3174 2643 
Q 3066 2502 3066 2291 
L 3066 0 
L 2554 0 
L 2554 2029 
Q 2554 2470 2381 2694 
Q 2208 2918 1843 2918 
Q 1645 2918 1462 2851 
Q 1280 2784 1168 2643 
Q 1056 2502 1056 2291 
L 1056 0 
z
" transform="scale(0.015625)"/>
        <path id="IBMPlexSans-Regular-73" d="M 1536 -77 
Q 1082 -77 768 99 
Q 454 275 230 570 
L 595 864 
Q 787 627 1024 492 
Q 1261 358 1574 358 
Q 1901 358 2083 499 
Q 2266 640 2266 896 
Q 2266 1088 2141 1229 
Q 2016 1370 1690 1414 
L 1427 1453 
Q 1126 1498 883 1603 
Q 640 1709 502 1904 
Q 365 2099 365 2406 
Q 365 2899 701 3139 
Q 1037 3379 1542 3379 
Q 1811 3379 2019 3315 
Q 2227 3251 2393 3132 
Q 2560 3014 2694 2848 
L 2355 2541 
Q 2246 2694 2035 2819 
Q 1824 2944 1504 2944 
Q 1190 2944 1024 2806 
Q 858 2669 858 2432 
Q 858 2195 1021 2083 
Q 1184 1971 1491 1920 
L 1747 1882 
Q 2298 1798 2528 1564 
Q 2758 1331 2758 954 
Q 2758 634 2611 403 
Q 2464 173 2189 48 
Q 1914 -77 1536 -77 
z
" transform="scale(0.015625)"/>
       </defs>
       <use xlink:href="#IBMPlexSans-Regular-41"/>
       <use xlink:href="#IBMPlexSans-Regular-49" transform="translate(64.099991 0)"/>
       <use xlink:href="#IBMPlexSans-Regular-34" transform="translate(104.099976 0)"/>
       <use xlink:href="#IBMPlexSans-Regular-46" transform="translate(164.09996 0)"/>
       <use xlink:href="#IBMPlexSans-Regular-61" transform="translate(219.999954 0)"/>
       <use xlink:href="#IBMPlexSans-Regular-72" transform="translate(273.399948 0)"/>
       <use xlink:href="#IBMPlexSans-Regular-6d" transform="translate(310.099945 0)"/>
       <use xlink:href="#IBMPlexSans-Regular-73" transform="translate(397.399933 0)"/>
       <use xlink:href="#IBMPlexSans-Regular-20" transform="translate(446.09993 0)"/>
      </g>
      <!-- (28.1%) -->
      <g transform="translate(459.789957 58.384) scale(0.28 -0.28)">
       <defs>
        <path id="IBMPlexSans-Regular-32" d="M 3411 474 
L 3411 0 
L 480 0 
L 480 550 
L 1939 1894 
Q 2253 2182 2464 2508 
Q 2675 2835 2675 3155 
L 2675 3232 
Q 2675 3603 2470 3833 
Q 2266 4064 1850 4064 
Q 1440 4064 1225 3846 
Q 1011 3629 922 3309 
L 442 3494 
Q 531 3757 700 3997 
Q 870 4237 1158 4390 
Q 1446 4544 1875 4544 
Q 2310 4544 2617 4377 
Q 2925 4211 3085 3920 
Q 3245 3629 3245 3245 
Q 3245 2899 3120 2611 
Q 2995 2323 2774 2067 
Q 2554 1811 2266 1555 
L 1062 474 
L 3411 474 
z
" transform="scale(0.015625)"/>
        <path id="IBMPlexSans-Regular-31" d="M 3501 0 
L 563 0 
L 563 474 
L 1811 474 
L 1811 4070 
L 1766 4070 
L 640 3021 
L 326 3360 
L 1510 4467 
L 2349 4467 
L 2349 474 
L 3501 474 
L 3501 0 
z
" transform="scale(0.015625)"/>
       </defs>
       <use xlink:href="#IBMPlexSans-Regular-28"/>
       <use xlink:href="#IBMPlexSans-Regular-32" transform="translate(33.499985 0)"/>
       <use xlink:href="#IBMPlexSans-Regular-38" transform="translate(93.499969 0)"/>
       <use xlink:href="#IBMPlexSans-Regular-2e" transform="translate(153.499954 0)"/>
       <use xlink:href="#IBMPlexSans-Regular-31" transform="translate(180.699951 0)"/>
       <use xlink:href="#IBMPlexSans-Regular-25" transform="translate(240.699936 0)"/>
       <use xlink:href="#IBMPlexSans-Regular-29" transform="translate(333.399918 0)"/>
      </g>
     </g>
    </g>
    <g id="xtick_4">
     <g id="line2d_4">
      <path d="M 440.566209 435.931321 
L 274.246209 147.85663 
" clip-path="url(#pbe9c94e3c6)" style="fill: none; stroke: #b0b0b0; stroke-width: 0.8; stroke-linecap: square"/>
     </g>
     <g id="text_4">
      <!-- BurnScars  -->
      <g transform="translate(169.213921 76.20683) scale(0.28 -0.28)">
       <defs>
        <path id="IBMPlexSans-Regular-42" d="M 595 0 
L 595 4467 
L 2432 4467 
Q 2982 4467 3302 4153 
Q 3622 3840 3622 3315 
Q 3622 2982 3504 2784 
Q 3386 2586 3216 2490 
Q 3046 2394 2899 2368 
L 2899 2330 
Q 3021 2323 3171 2262 
Q 3322 2202 3459 2080 
Q 3597 1958 3686 1766 
Q 3776 1574 3776 1293 
Q 3776 928 3625 633 
Q 3475 339 3216 169 
Q 2957 0 2624 0 
L 595 0 
z
M 1133 2074 
L 1133 474 
L 2458 474 
Q 2688 474 2854 554 
Q 3021 634 3110 787 
Q 3200 941 3200 1165 
L 3200 1382 
Q 3200 1606 3110 1760 
Q 3021 1914 2854 1994 
Q 2688 2074 2458 2074 
L 1133 2074 
z
M 1133 3994 
L 1133 2534 
L 2368 2534 
Q 2579 2534 2729 2608 
Q 2880 2682 2963 2819 
Q 3046 2957 3046 3155 
L 3046 3373 
Q 3046 3571 2963 3708 
Q 2880 3846 2729 3920 
Q 2579 3994 2368 3994 
L 1133 3994 
z
" transform="scale(0.015625)"/>
        <path id="IBMPlexSans-Regular-75" d="M 2579 0 
L 2579 538 
L 2554 538 
Q 2458 301 2250 112 
Q 2042 -77 1626 -77 
Q 1120 -77 816 252 
Q 512 582 512 1184 
L 512 3302 
L 1024 3302 
L 1024 1274 
Q 1024 832 1216 608 
Q 1408 384 1779 384 
Q 1984 384 2166 451 
Q 2349 518 2464 659 
Q 2579 800 2579 1018 
L 2579 3302 
L 3091 3302 
L 3091 0 
L 2579 0 
z
" transform="scale(0.015625)"/>
        <path id="IBMPlexSans-Regular-6e" d="M 1056 0 
L 544 0 
L 544 3302 
L 1056 3302 
L 1056 2765 
L 1082 2765 
Q 1203 3046 1424 3212 
Q 1645 3379 2016 3379 
Q 2528 3379 2825 3049 
Q 3123 2720 3123 2118 
L 3123 0 
L 2611 0 
L 2611 2029 
Q 2611 2470 2422 2694 
Q 2234 2918 1862 2918 
Q 1658 2918 1472 2851 
Q 1286 2784 1171 2643 
Q 1056 2502 1056 2291 
L 1056 0 
z
" transform="scale(0.015625)"/>
       </defs>
       <use xlink:href="#IBMPlexSans-Regular-42"/>
       <use xlink:href="#IBMPlexSans-Regular-75" transform="translate(65.299988 0)"/>
       <use xlink:href="#IBMPlexSans-Regular-72" transform="translate(122.099976 0)"/>
       <use xlink:href="#IBMPlexSans-Regular-6e" transform="translate(158.799973 0)"/>
       <use xlink:href="#IBMPlexSans-Regular-53" transform="translate(215.59996 0)"/>
       <use xlink:href="#IBMPlexSans-Regular-63" transform="translate(273.699951 0)"/>
       <use xlink:href="#IBMPlexSans-Regular-61" transform="translate(323.999939 0)"/>
       <use xlink:href="#IBMPlexSans-Regular-72" transform="translate(377.399933 0)"/>
       <use xlink:href="#IBMPlexSans-Regular-73" transform="translate(414.09993 0)"/>
       <use xlink:href="#IBMPlexSans-Regular-20" transform="translate(462.799927 0)"/>
      </g>
      <!-- (83.6%) -->
      <g transform="translate(185.941734 106.67083) scale(0.28 -0.28)">
       <use xlink:href="#IBMPlexSans-Regular-28"/>
       <use xlink:href="#IBMPlexSans-Regular-38" transform="translate(33.499985 0)"/>
       <use xlink:href="#IBMPlexSans-Regular-33" transform="translate(93.499969 0)"/>
       <use xlink:href="#IBMPlexSans-Regular-2e" transform="translate(153.499954 0)"/>
       <use xlink:href="#IBMPlexSans-Regular-36" transform="translate(180.699951 0)"/>
       <use xlink:href="#IBMPlexSans-Regular-25" transform="translate(240.699936 0)"/>
       <use xlink:href="#IBMPlexSans-Regular-29" transform="translate(333.399918 0)"/>
      </g>
     </g>
    </g>
    <g id="xtick_5">
     <g id="line2d_5">
      <path d="M 440.566209 435.931321 
L 127.986855 322.16174 
" clip-path="url(#pbe9c94e3c6)" style="fill: none; stroke: #b0b0b0; stroke-width: 0.8; stroke-linecap: square"/>
     </g>
     <g id="text_5">
      <!-- MADOS  -->
      <g transform="translate(7.484375 289.222934) scale(0.28 -0.28)">
       <defs>
        <path id="IBMPlexSans-Regular-44" d="M 595 0 
L 595 4467 
L 2093 4467 
Q 2650 4467 3062 4220 
Q 3475 3974 3699 3478 
Q 3923 2982 3923 2234 
Q 3923 1485 3699 989 
Q 3475 493 3062 246 
Q 2650 0 2093 0 
L 595 0 
z
M 1133 474 
L 2093 474 
Q 2464 474 2745 640 
Q 3027 806 3187 1116 
Q 3347 1427 3347 1869 
L 3347 2598 
Q 3347 3040 3187 3353 
Q 3027 3667 2745 3830 
Q 2464 3994 2093 3994 
L 1133 3994 
L 1133 474 
z
" transform="scale(0.015625)"/>
        <path id="IBMPlexSans-Regular-4f" d="M 2266 -77 
Q 1690 -77 1264 188 
Q 838 454 604 969 
Q 371 1485 371 2234 
Q 371 2982 604 3497 
Q 838 4013 1264 4278 
Q 1690 4544 2266 4544 
Q 2842 4544 3267 4278 
Q 3693 4013 3926 3497 
Q 4160 2982 4160 2234 
Q 4160 1485 3926 969 
Q 3693 454 3267 188 
Q 2842 -77 2266 -77 
z
M 2266 403 
Q 2656 403 2950 585 
Q 3245 768 3414 1094 
Q 3584 1421 3584 1862 
L 3584 2605 
Q 3584 3046 3414 3376 
Q 3245 3706 2950 3885 
Q 2656 4064 2266 4064 
Q 1882 4064 1584 3885 
Q 1286 3706 1116 3376 
Q 947 3046 947 2605 
L 947 1862 
Q 947 1421 1116 1094 
Q 1286 768 1584 585 
Q 1882 403 2266 403 
z
" transform="scale(0.015625)"/>
       </defs>
       <use xlink:href="#IBMPlexSans-Regular-4d"/>
       <use xlink:href="#IBMPlexSans-Regular-41" transform="translate(81.199982 0)"/>
       <use xlink:href="#IBMPlexSans-Regular-44" transform="translate(145.299973 0)"/>
       <use xlink:href="#IBMPlexSans-Regular-4f" transform="translate(212.399963 0)"/>
       <use xlink:href="#IBMPlexSans-Regular-53" transform="translate(283.199951 0)"/>
       <use xlink:href="#IBMPlexSans-Regular-20" transform="translate(341.299942 0)"/>
      </g>
      <!-- (75.6%) -->
      <g transform="translate(7.2 319.686934) scale(0.28 -0.28)">
       <use xlink:href="#IBMPlexSans-Regular-28"/>
       <use xlink:href="#IBMPlexSans-Regular-37" transform="translate(33.499985 0)"/>
       <use xlink:href="#IBMPlexSans-Regular-35" transform="translate(93.499969 0)"/>
       <use xlink:href="#IBMPlexSans-Regular-2e" transform="translate(153.499954 0)"/>
       <use xlink:href="#IBMPlexSans-Regular-36" transform="translate(180.699951 0)"/>
       <use xlink:href="#IBMPlexSans-Regular-25" transform="translate(240.699936 0)"/>
       <use xlink:href="#IBMPlexSans-Regular-29" transform="translate(333.399918 0)"/>
      </g>
     </g>
    </g>
    <g id="xtick_6">
     <g id="line2d_6">
      <path d="M 440.566209 435.931321 
L 127.986855 549.700901 
" clip-path="url(#pbe9c94e3c6)" style="fill: none; stroke: #b0b0b0; stroke-width: 0.8; stroke-linecap: square"/>
     </g>
     <g id="text_6">
      <!-- PASTIS  -->
      <g transform="translate(7.932813 567.295708) scale(0.28 -0.28)">
       <defs>
        <path id="IBMPlexSans-Regular-50" d="M 1133 0 
L 595 0 
L 595 4467 
L 2374 4467 
Q 2778 4467 3056 4310 
Q 3334 4154 3478 3869 
Q 3622 3584 3622 3187 
Q 3622 2797 3478 2509 
Q 3334 2221 3056 2064 
Q 2778 1907 2374 1907 
L 1133 1907 
L 1133 0 
z
M 1133 3994 
L 1133 2381 
L 2374 2381 
Q 2586 2381 2736 2454 
Q 2886 2528 2966 2672 
Q 3046 2816 3046 3021 
L 3046 3354 
Q 3046 3558 2966 3702 
Q 2886 3846 2736 3920 
Q 2586 3994 2374 3994 
L 1133 3994 
z
" transform="scale(0.015625)"/>
       </defs>
       <use xlink:href="#IBMPlexSans-Regular-50"/>
       <use xlink:href="#IBMPlexSans-Regular-41" transform="translate(60.599991 0)"/>
       <use xlink:href="#IBMPlexSans-Regular-53" transform="translate(124.699982 0)"/>
       <use xlink:href="#IBMPlexSans-Regular-54" transform="translate(182.799973 0)"/>
       <use xlink:href="#IBMPlexSans-Regular-49" transform="translate(239.999969 0)"/>
       <use xlink:href="#IBMPlexSans-Regular-53" transform="translate(279.999954 0)"/>
       <use xlink:href="#IBMPlexSans-Regular-20" transform="translate(338.099945 0)"/>
      </g>
      <!-- (43.1%) -->
      <g transform="translate(7.2 597.759708) scale(0.28 -0.28)">
       <use xlink:href="#IBMPlexSans-Regular-28"/>
       <use xlink:href="#IBMPlexSans-Regular-34" transform="translate(33.499985 0)"/>
       <use xlink:href="#IBMPlexSans-Regular-33" transform="translate(93.499969 0)"/>
       <use xlink:href="#IBMPlexSans-Regular-2e" transform="translate(153.499954 0)"/>
       <use xlink:href="#IBMPlexSans-Regular-31" transform="translate(180.699951 0)"/>
       <use xlink:href="#IBMPlexSans-Regular-25" transform="translate(240.699936 0)"/>
       <use xlink:href="#IBMPlexSans-Regular-29" transform="translate(333.399918 0)"/>
      </g>
     </g>
    </g>
    <g id="xtick_7">
     <g id="line2d_7">
      <path d="M 440.566209 435.931321 
L 274.246209 724.006011 
" clip-path="url(#pbe9c94e3c6)" style="fill: none; stroke: #b0b0b0; stroke-width: 0.8; stroke-linecap: square"/>
     </g>
     <g id="text_7">
      <!-- Sen1Floods11  -->
      <g transform="translate(142.780171 780.311811) scale(0.28 -0.28)">
       <defs>
        <path id="IBMPlexSans-Regular-6c" d="M 1542 0 
L 1088 0 
Q 826 0 685 150 
Q 544 301 544 531 
L 544 4736 
L 1056 4736 
L 1056 448 
L 1542 448 
L 1542 0 
z
" transform="scale(0.015625)"/>
        <path id="IBMPlexSans-Regular-6f" d="M 1792 -77 
Q 1350 -77 1014 137 
Q 678 352 489 739 
Q 301 1126 301 1651 
Q 301 2176 489 2563 
Q 678 2950 1014 3164 
Q 1350 3379 1792 3379 
Q 2234 3379 2570 3164 
Q 2906 2950 3094 2563 
Q 3283 2176 3283 1651 
Q 3283 1126 3094 739 
Q 2906 352 2570 137 
Q 2234 -77 1792 -77 
z
M 1792 378 
Q 2208 378 2470 634 
Q 2733 890 2733 1414 
L 2733 1888 
Q 2733 2413 2470 2669 
Q 2208 2925 1792 2925 
Q 1382 2925 1116 2669 
Q 851 2413 851 1888 
L 851 1414 
Q 851 890 1116 634 
Q 1382 378 1792 378 
z
" transform="scale(0.015625)"/>
        <path id="IBMPlexSans-Regular-64" d="M 2656 0 
L 2656 538 
L 2630 538 
Q 2483 230 2243 76 
Q 2003 -77 1664 -77 
Q 1254 -77 950 134 
Q 646 346 483 736 
Q 320 1126 320 1651 
Q 320 2182 483 2569 
Q 646 2957 950 3168 
Q 1254 3379 1664 3379 
Q 2003 3379 2252 3228 
Q 2502 3078 2630 2765 
L 2656 2765 
L 2656 4736 
L 3168 4736 
L 3168 0 
L 2656 0 
z
M 1805 384 
Q 2042 384 2234 464 
Q 2426 544 2541 694 
Q 2656 845 2656 1056 
L 2656 2285 
Q 2656 2470 2541 2611 
Q 2426 2752 2234 2835 
Q 2042 2918 1805 2918 
Q 1376 2918 1123 2646 
Q 870 2374 870 1933 
L 870 1370 
Q 870 928 1123 656 
Q 1376 384 1805 384 
z
" transform="scale(0.015625)"/>
       </defs>
       <use xlink:href="#IBMPlexSans-Regular-53"/>
       <use xlink:href="#IBMPlexSans-Regular-65" transform="translate(58.099991 0)"/>
       <use xlink:href="#IBMPlexSans-Regular-6e" transform="translate(112.999985 0)"/>
       <use xlink:href="#IBMPlexSans-Regular-31" transform="translate(169.799973 0)"/>
       <use xlink:href="#IBMPlexSans-Regular-46" transform="translate(229.799957 0)"/>
       <use xlink:href="#IBMPlexSans-Regular-6c" transform="translate(285.699951 0)"/>
       <use xlink:href="#IBMPlexSans-Regular-6f" transform="translate(312.899948 0)"/>
       <use xlink:href="#IBMPlexSans-Regular-6f" transform="translate(368.899933 0)"/>
       <use xlink:href="#IBMPlexSans-Regular-64" transform="translate(424.899918 0)"/>
       <use xlink:href="#IBMPlexSans-Regular-73" transform="translate(482.899902 0)"/>
       <use xlink:href="#IBMPlexSans-Regular-31" transform="translate(531.599899 0)"/>
       <use xlink:href="#IBMPlexSans-Regular-31" transform="translate(591.599884 0)"/>
       <use xlink:href="#IBMPlexSans-Regular-20" transform="translate(651.599869 0)"/>
      </g>
      <!-- (90.9%) -->
      <g transform="translate(185.941734 810.775811) scale(0.28 -0.28)">
       <defs>
        <path id="IBMPlexSans-Regular-39" d="M 3411 2829 
Q 3411 2330 3267 1894 
Q 3123 1459 2883 1094 
Q 2643 730 2364 451 
Q 2086 173 1818 0 
L 1126 0 
Q 1606 352 1945 685 
Q 2285 1018 2509 1408 
Q 2733 1798 2854 2317 
L 2822 2330 
Q 2720 2150 2573 2003 
Q 2426 1856 2224 1773 
Q 2022 1690 1747 1690 
Q 1363 1690 1065 1856 
Q 768 2022 598 2332 
Q 429 2643 429 3066 
Q 429 3507 614 3840 
Q 800 4173 1133 4358 
Q 1466 4544 1914 4544 
Q 2381 4544 2713 4336 
Q 3046 4128 3228 3744 
Q 3411 3360 3411 2829 
z
M 1920 2144 
Q 2214 2144 2422 2253 
Q 2630 2362 2742 2573 
Q 2854 2784 2854 3085 
L 2854 3136 
Q 2854 3437 2742 3648 
Q 2630 3859 2422 3968 
Q 2214 4077 1920 4077 
Q 1626 4077 1418 3968 
Q 1210 3859 1098 3648 
Q 986 3437 986 3136 
L 986 3085 
Q 986 2784 1098 2573 
Q 1210 2362 1418 2253 
Q 1626 2144 1920 2144 
z
" transform="scale(0.015625)"/>
       </defs>
       <use xlink:href="#IBMPlexSans-Regular-28"/>
       <use xlink:href="#IBMPlexSans-Regular-39" transform="translate(33.499985 0)"/>
       <use xlink:href="#IBMPlexSans-Regular-30" transform="translate(93.499969 0)"/>
       <use xlink:href="#IBMPlexSans-Regular-2e" transform="translate(153.499954 0)"/>
       <use xlink:href="#IBMPlexSans-Regular-39" transform="translate(180.699951 0)"/>
       <use xlink:href="#IBMPlexSans-Regular-25" transform="translate(240.699936 0)"/>
       <use xlink:href="#IBMPlexSans-Regular-29" transform="translate(333.399918 0)"/>
      </g>
     </g>
    </g>
    <g id="xtick_8">
     <g id="line2d_8">
      <path d="M 440.566209 435.931321 
L 498.328538 763.517772 
" clip-path="url(#pbe9c94e3c6)" style="fill: none; stroke: #b0b0b0; stroke-width: 0.8; stroke-linecap: square"/>
     </g>
     <g id="text_8">
      <!-- FiveBillionPixels  -->
      <g transform="translate(405.006207 828.598641) scale(0.28 -0.28)">
       <defs>
        <path id="IBMPlexSans-Regular-69" d="M 800 4077 
Q 640 4077 563 4157 
Q 486 4237 486 4365 
L 486 4448 
Q 486 4576 563 4656 
Q 640 4736 800 4736 
Q 966 4736 1040 4656 
Q 1114 4576 1114 4448 
L 1114 4365 
Q 1114 4237 1040 4157 
Q 966 4077 800 4077 
z
M 544 0 
L 544 3302 
L 1056 3302 
L 1056 0 
L 544 0 
z
" transform="scale(0.015625)"/>
        <path id="IBMPlexSans-Regular-76" d="M 1869 0 
L 1274 0 
L 115 3302 
L 627 3302 
L 1203 1664 
L 1562 538 
L 1594 538 
L 1952 1664 
L 2541 3302 
L 3034 3302 
L 1869 0 
z
" transform="scale(0.015625)"/>
        <path id="IBMPlexSans-Regular-78" d="M 134 0 
L 1357 1664 
L 186 3302 
L 787 3302 
L 1626 2074 
L 1645 2074 
L 2515 3302 
L 3085 3302 
L 1920 1702 
L 3110 0 
L 2509 0 
L 1651 1293 
L 1632 1293 
L 704 0 
L 134 0 
z
" transform="scale(0.015625)"/>
       </defs>
       <use xlink:href="#IBMPlexSans-Regular-46"/>
       <use xlink:href="#IBMPlexSans-Regular-69" transform="translate(55.899994 0)"/>
       <use xlink:href="#IBMPlexSans-Regular-76" transform="translate(80.899979 0)"/>
       <use xlink:href="#IBMPlexSans-Regular-65" transform="translate(130.099976 0)"/>
       <use xlink:href="#IBMPlexSans-Regular-42" transform="translate(184.999969 0)"/>
       <use xlink:href="#IBMPlexSans-Regular-69" transform="translate(250.299957 0)"/>
       <use xlink:href="#IBMPlexSans-Regular-6c" transform="translate(275.299942 0)"/>
       <use xlink:href="#IBMPlexSans-Regular-6c" transform="translate(302.499939 0)"/>
       <use xlink:href="#IBMPlexSans-Regular-69" transform="translate(329.699936 0)"/>
       <use xlink:href="#IBMPlexSans-Regular-6f" transform="translate(354.699921 0)"/>
       <use xlink:href="#IBMPlexSans-Regular-6e" transform="translate(410.699905 0)"/>
       <use xlink:href="#IBMPlexSans-Regular-50" transform="translate(467.499893 0)"/>
       <use xlink:href="#IBMPlexSans-Regular-69" transform="translate(528.099884 0)"/>
       <use xlink:href="#IBMPlexSans-Regular-78" transform="translate(553.099869 0)"/>
       <use xlink:href="#IBMPlexSans-Regular-65" transform="translate(603.799866 0)"/>
       <use xlink:href="#IBMPlexSans-Regular-6c" transform="translate(658.69986 0)"/>
       <use xlink:href="#IBMPlexSans-Regular-73" transform="translate(685.899857 0)"/>
       <use xlink:href="#IBMPlexSans-Regular-20" transform="translate(734.599854 0)"/>
      </g>
      <!-- (69.2%) -->
      <g transform="translate(459.789957 859.062641) scale(0.28 -0.28)">
       <use xlink:href="#IBMPlexSans-Regular-28"/>
       <use xlink:href="#IBMPlexSans-Regular-36" transform="translate(33.499985 0)"/>
       <use xlink:href="#IBMPlexSans-Regular-39" transform="translate(93.499969 0)"/>
       <use xlink:href="#IBMPlexSans-Regular-2e" transform="translate(153.499954 0)"/>
       <use xlink:href="#IBMPlexSans-Regular-32" transform="translate(180.699951 0)"/>
       <use xlink:href="#IBMPlexSans-Regular-25" transform="translate(240.699936 0)"/>
       <use xlink:href="#IBMPlexSans-Regular-29" transform="translate(333.399918 0)"/>
      </g>
     </g>
    </g>
    <g id="xtick_9">
     <g id="line2d_9">
      <path d="M 440.566209 435.931321 
L 695.383232 649.748191 
" clip-path="url(#pbe9c94e3c6)" style="fill: none; stroke: #b0b0b0; stroke-width: 0.8; stroke-linecap: square"/>
     </g>
     <g id="text_9">
      <!-- Dynamic -->
      <g transform="translate(697.403356 674.330254) scale(0.28 -0.28)">
       <defs>
        <path id="IBMPlexSans-Regular-79" d="M 1779 1056 
L 2579 3302 
L 3085 3302 
L 1606 -768 
Q 1536 -966 1449 -1078 
Q 1363 -1190 1222 -1235 
Q 1082 -1280 838 -1280 
L 576 -1280 
L 576 -832 
L 1094 -832 
L 1344 -128 
L 109 3302 
L 621 3302 
L 1414 1056 
L 1568 518 
L 1600 518 
L 1779 1056 
z
" transform="scale(0.015625)"/>
       </defs>
       <use xlink:href="#IBMPlexSans-Regular-44"/>
       <use xlink:href="#IBMPlexSans-Regular-79" transform="translate(67.099991 0)"/>
       <use xlink:href="#IBMPlexSans-Regular-6e" transform="translate(116.999985 0)"/>
       <use xlink:href="#IBMPlexSans-Regular-61" transform="translate(173.799973 0)"/>
       <use xlink:href="#IBMPlexSans-Regular-6d" transform="translate(227.199966 0)"/>
       <use xlink:href="#IBMPlexSans-Regular-69" transform="translate(314.499954 0)"/>
       <use xlink:href="#IBMPlexSans-Regular-63" transform="translate(339.499939 0)"/>
      </g>
      <!-- EarthNet -->
      <g transform="translate(695.834919 704.794254) scale(0.28 -0.28)">
       <defs>
        <path id="IBMPlexSans-Regular-45" d="M 3322 0 
L 595 0 
L 595 4467 
L 3322 4467 
L 3322 3994 
L 1133 3994 
L 1133 2496 
L 3194 2496 
L 3194 2022 
L 1133 2022 
L 1133 474 
L 3322 474 
L 3322 0 
z
" transform="scale(0.015625)"/>
        <path id="IBMPlexSans-Regular-68" d="M 544 0 
L 544 4736 
L 1056 4736 
L 1056 2765 
L 1082 2765 
Q 1203 3046 1424 3212 
Q 1645 3379 2016 3379 
Q 2528 3379 2825 3049 
Q 3123 2720 3123 2118 
L 3123 0 
L 2611 0 
L 2611 2029 
Q 2611 2470 2422 2694 
Q 2234 2918 1862 2918 
Q 1658 2918 1472 2851 
Q 1286 2784 1171 2643 
Q 1056 2502 1056 2291 
L 1056 0 
L 544 0 
z
" transform="scale(0.015625)"/>
       </defs>
       <use xlink:href="#IBMPlexSans-Regular-45"/>
       <use xlink:href="#IBMPlexSans-Regular-61" transform="translate(58.299988 0)"/>
       <use xlink:href="#IBMPlexSans-Regular-72" transform="translate(111.699982 0)"/>
       <use xlink:href="#IBMPlexSans-Regular-74" transform="translate(148.399979 0)"/>
       <use xlink:href="#IBMPlexSans-Regular-68" transform="translate(183.499969 0)"/>
       <use xlink:href="#IBMPlexSans-Regular-4e" transform="translate(240.299957 0)"/>
       <use xlink:href="#IBMPlexSans-Regular-65" transform="translate(310.999939 0)"/>
       <use xlink:href="#IBMPlexSans-Regular-74" transform="translate(365.899933 0)"/>
      </g>
      <!-- (39.3%) -->
      <g transform="translate(700.608044 735.258254) scale(0.28 -0.28)">
       <use xlink:href="#IBMPlexSans-Regular-28"/>
       <use xlink:href="#IBMPlexSans-Regular-33" transform="translate(33.499985 0)"/>
       <use xlink:href="#IBMPlexSans-Regular-39" transform="translate(93.499969 0)"/>
       <use xlink:href="#IBMPlexSans-Regular-2e" transform="translate(153.499954 0)"/>
       <use xlink:href="#IBMPlexSans-Regular-33" transform="translate(180.699951 0)"/>
       <use xlink:href="#IBMPlexSans-Regular-25" transform="translate(240.699936 0)"/>
       <use xlink:href="#IBMPlexSans-Regular-29" transform="translate(333.399918 0)"/>
      </g>
     </g>
    </g>
   </g>
   <g id="matplotlib.axis_2">
    <g id="ytick_1">
     <g id="line2d_10">
      <path d="M 465.512735 435.931321 
C 465.512735 432.655373 464.867445 429.411279 463.613794 426.384698 
C 462.360143 423.358117 460.522512 420.607908 458.206067 418.291463 
C 455.889622 415.975018 453.139412 414.137387 450.112831 412.883736 
C 447.08625 411.630085 443.842157 410.984794 440.566209 410.984794 
C 437.290261 410.984794 434.046167 411.630085 431.019586 412.883736 
C 427.993005 414.137387 425.242796 415.975018 422.926351 418.291463 
C 420.609906 420.607908 418.772275 423.358117 417.518624 426.384698 
C 416.264973 429.411279 415.619682 432.655373 415.619682 435.931321 
C 415.619682 439.207269 416.264973 442.451362 417.518624 445.477943 
C 418.772275 448.504524 420.609906 451.254734 422.926351 453.571179 
C 425.242796 455.887624 427.993005 457.725255 431.019586 458.978906 
C 434.046167 460.232557 437.290261 460.877847 440.566209 460.877847 
C 443.842157 460.877847 447.08625 460.232557 450.112831 458.978906 
C 453.139412 457.725255 455.889622 455.887624 458.206067 453.571179 
C 460.522512 451.254734 462.360143 448.504524 463.613794 445.477943 
C 464.867445 442.451362 465.512735 439.207269 465.512735 435.931321 
" clip-path="url(#pbe9c94e3c6)" style="fill: none; stroke: #b0b0b0; stroke-width: 0.8; stroke-linecap: square"/>
     </g>
    </g>
    <g id="ytick_2">
     <g id="line2d_11">
      <path d="M 507.842387 435.931321 
C 507.842387 427.096694 506.102158 418.347973 502.721293 410.185842 
C 499.340428 402.023711 494.384675 394.606903 488.137651 388.359879 
C 481.890626 382.112854 474.473818 377.157102 466.311688 373.776236 
C 458.149557 370.395371 449.400835 368.655142 440.566209 368.655142 
C 431.731582 368.655142 422.982861 370.395371 414.82073 373.776236 
C 406.658599 377.157102 399.241791 382.112854 392.994767 388.359879 
C 386.747742 394.606903 381.79199 402.023711 378.411124 410.185842 
C 375.030259 418.347973 373.29003 427.096694 373.29003 435.931321 
C 373.29003 444.765947 375.030259 453.514669 378.411124 461.6768 
C 381.79199 469.83893 386.747742 477.255738 392.994767 483.502763 
C 399.241791 489.749787 406.658599 494.70554 414.82073 498.086405 
C 422.982861 501.46727 431.731582 503.207499 440.566209 503.207499 
C 449.400835 503.207499 458.149557 501.46727 466.311688 498.086405 
C 474.473818 494.70554 481.890626 489.749787 488.137651 483.502763 
C 494.384675 477.255738 499.340428 469.83893 502.721293 461.6768 
C 506.102158 453.514669 507.842387 444.765947 507.842387 435.931321 
" clip-path="url(#pbe9c94e3c6)" style="fill: none; stroke: #b0b0b0; stroke-width: 0.8; stroke-linecap: square"/>
     </g>
    </g>
    <g id="ytick_3">
     <g id="line2d_12">
      <path d="M 550.172039 435.931321 
C 550.172039 421.538015 547.336872 407.284666 541.828792 393.986985 
C 536.320712 380.689305 528.246839 368.605899 518.069235 358.428295 
C 507.891631 348.250691 495.808225 340.176817 482.510544 334.668737 
C 469.212863 329.160658 454.959514 326.32549 440.566209 326.32549 
C 426.172903 326.32549 411.919554 329.160658 398.621873 334.668737 
C 385.324193 340.176817 373.240787 348.250691 363.063183 358.428295 
C 352.885579 368.605899 344.811705 380.689305 339.303625 393.986985 
C 333.795546 407.284666 330.960378 421.538015 330.960378 435.931321 
C 330.960378 450.324626 333.795546 464.577975 339.303625 477.875656 
C 344.811705 491.173337 352.885579 503.256743 363.063183 513.434347 
C 373.240787 523.611951 385.324193 531.685824 398.621873 537.193904 
C 411.919554 542.701984 426.172903 545.537151 440.566209 545.537151 
C 454.959514 545.537151 469.212863 542.701984 482.510544 537.193904 
C 495.808225 531.685824 507.891631 523.611951 518.069235 513.434347 
C 528.246839 503.256743 536.320712 491.173337 541.828792 477.875656 
C 547.336872 464.577975 550.172039 450.324626 550.172039 435.931321 
" clip-path="url(#pbe9c94e3c6)" style="fill: none; stroke: #b0b0b0; stroke-width: 0.8; stroke-linecap: square"/>
     </g>
    </g>
    <g id="ytick_4">
     <g id="line2d_13">
      <path d="M 592.501691 435.931321 
C 592.501691 415.979336 588.571585 396.221359 580.936291 377.788129 
C 573.300997 359.354898 562.109002 342.604894 548.000819 328.496711 
C 533.892635 314.388527 517.142631 303.196532 498.709401 295.561238 
C 480.27617 287.925944 460.518193 283.995838 440.566209 283.995838 
C 420.614224 283.995838 400.856247 287.925944 382.423017 295.561238 
C 363.989786 303.196532 347.239782 314.388527 333.131599 328.496711 
C 319.023415 342.604894 307.83142 359.354898 300.196126 377.788129 
C 292.560832 396.221359 288.630726 415.979336 288.630726 435.931321 
C 288.630726 455.883305 292.560832 475.641282 300.196126 494.074513 
C 307.83142 512.507743 319.023415 529.257747 333.131599 543.365931 
C 347.239782 557.474114 363.989786 568.666109 382.423017 576.301403 
C 400.856247 583.936697 420.614224 587.866803 440.566209 587.866803 
C 460.518193 587.866803 480.27617 583.936697 498.709401 576.301403 
C 517.142631 568.666109 533.892635 557.474114 548.000819 543.365931 
C 562.109002 529.257747 573.300997 512.507743 580.936291 494.074513 
C 588.571585 475.641282 592.501691 455.883305 592.501691 435.931321 
" clip-path="url(#pbe9c94e3c6)" style="fill: none; stroke: #b0b0b0; stroke-width: 0.8; stroke-linecap: square"/>
     </g>
    </g>
    <g id="ytick_5">
     <g id="line2d_14">
      <path d="M 634.831343 435.931321 
C 634.831343 410.420657 629.806299 385.158052 620.04379 361.589272 
C 610.281282 338.020492 595.971166 316.60389 577.932403 298.565127 
C 559.893639 280.526363 538.477037 266.216247 514.908257 256.453739 
C 491.339477 246.691231 466.076872 241.666186 440.566209 241.666186 
C 415.055545 241.666186 389.79294 246.691231 366.22416 256.453739 
C 342.65538 266.216247 321.238778 280.526363 303.200015 298.565127 
C 285.161251 316.60389 270.851135 338.020492 261.088627 361.589272 
C 251.326119 385.158052 246.301074 410.420657 246.301074 435.931321 
C 246.301074 461.441984 251.326119 486.704589 261.088627 510.273369 
C 270.851135 533.842149 285.161251 555.258751 303.200015 573.297515 
C 321.238778 591.336278 342.65538 605.646394 366.22416 615.408902 
C 389.79294 625.171411 415.055545 630.196455 440.566209 630.196455 
C 466.076872 630.196455 491.339477 625.171411 514.908257 615.408902 
C 538.477037 605.646394 559.893639 591.336278 577.932403 573.297515 
C 595.971166 555.258751 610.281282 533.842149 620.04379 510.273369 
C 629.806299 486.704589 634.831343 461.441984 634.831343 435.931321 
" clip-path="url(#pbe9c94e3c6)" style="fill: none; stroke: #b0b0b0; stroke-width: 0.8; stroke-linecap: square"/>
     </g>
    </g>
    <g id="ytick_6">
     <g id="line2d_15">
      <path d="M 677.160995 435.931321 
C 677.160995 404.861978 671.041012 374.094745 659.15129 345.390416 
C 647.261567 316.686086 629.83333 290.602886 607.863987 268.633543 
C 585.894644 246.6642 559.811444 229.235963 531.107114 217.34624 
C 502.402784 205.456517 471.635551 199.336534 440.566209 199.336534 
C 409.496866 199.336534 378.729633 205.456517 350.025304 217.34624 
C 321.320974 229.235963 295.237774 246.6642 273.268431 268.633543 
C 251.299088 290.602886 233.870851 316.686086 221.981128 345.390416 
C 210.091405 374.094745 203.971422 404.861978 203.971422 435.931321 
C 203.971422 467.000663 210.091405 497.767896 221.981128 526.472226 
C 233.870851 555.176556 251.299088 581.259756 273.268431 603.229099 
C 295.237774 625.198442 321.320974 642.626679 350.025304 654.516402 
C 378.729633 666.406124 409.496866 672.526107 440.566209 672.526107 
C 471.635551 672.526107 502.402784 666.406124 531.107114 654.516402 
C 559.811444 642.626679 585.894644 625.198442 607.863987 603.229099 
C 629.83333 581.259756 647.261567 555.176556 659.15129 526.472226 
C 671.041012 497.767896 677.160995 467.000663 677.160995 435.931321 
" clip-path="url(#pbe9c94e3c6)" style="fill: none; stroke: #b0b0b0; stroke-width: 0.8; stroke-linecap: square"/>
     </g>
    </g>
    <g id="ytick_7">
     <g id="line2d_16">
      <path d="M 719.490647 435.931321 
C 719.490647 399.303299 712.275726 363.031439 698.258789 329.191559 
C 684.241852 295.35168 663.695493 264.601881 637.795571 238.701959 
C 611.895648 212.802036 581.14585 192.255678 547.30597 178.238741 
C 513.466091 164.221804 477.19423 157.006882 440.566209 157.006882 
C 403.938187 157.006882 367.666327 164.221804 333.826447 178.238741 
C 299.986568 192.255678 269.236769 212.802036 243.336847 238.701959 
C 217.436924 264.601881 196.890566 295.35168 182.873629 329.191559 
C 168.856692 363.031439 161.64177 399.303299 161.64177 435.931321 
C 161.64177 472.559342 168.856692 508.831203 182.873629 542.671082 
C 196.890566 576.510962 217.436924 607.26076 243.336847 633.160683 
C 269.236769 659.060605 299.986568 679.606964 333.826447 693.623901 
C 367.666327 707.640838 403.938187 714.855759 440.566209 714.855759 
C 477.19423 714.855759 513.466091 707.640838 547.30597 693.623901 
C 581.14585 679.606964 611.895648 659.060605 637.795571 633.160683 
C 663.695493 607.26076 684.241852 576.510962 698.258789 542.671082 
C 712.275726 508.831203 719.490647 472.559342 719.490647 435.931321 
" clip-path="url(#pbe9c94e3c6)" style="fill: none; stroke: #b0b0b0; stroke-width: 0.8; stroke-linecap: square"/>
     </g>
    </g>
    <g id="ytick_8">
     <g id="line2d_17">
      <path d="M 761.820299 435.931321 
C 761.820299 393.74462 753.510439 351.968132 737.366288 312.992703 
C 721.222136 274.017273 697.557657 238.600877 667.727155 208.770375 
C 637.896653 178.939873 602.480256 155.275393 563.504827 139.131242 
C 524.529397 122.98709 482.752909 114.67723 440.566209 114.67723 
C 398.379508 114.67723 356.60302 122.98709 317.627591 139.131242 
C 278.652161 155.275393 243.235765 178.939873 213.405263 208.770375 
C 183.574761 238.600877 159.910281 274.017273 143.76613 312.992703 
C 127.621978 351.968132 119.312118 393.74462 119.312118 435.931321 
C 119.312118 478.118021 127.621978 519.894509 143.76613 558.869939 
C 159.910281 597.845368 183.574761 633.261765 213.405263 663.092267 
C 243.235765 692.922769 278.652161 716.587248 317.627591 732.7314 
C 356.60302 748.875551 398.379508 757.185411 440.566209 757.185411 
C 482.752909 757.185411 524.529397 748.875551 563.504827 732.7314 
C 602.480256 716.587248 637.896653 692.922769 667.727155 663.092267 
C 697.557657 633.261765 721.222136 597.845368 737.366288 558.869939 
C 753.510439 519.894509 761.820299 478.118021 761.820299 435.931321 
" clip-path="url(#pbe9c94e3c6)" style="fill: none; stroke: #b0b0b0; stroke-width: 0.8; stroke-linecap: square"/>
     </g>
    </g>
   </g>
   <g id="line2d_18">
    <path d="M 710.140484 435.931321 
L 583.301986 316.161782 
L 447.621738 395.917425 
L 308.862157 207.813212 
L 206.222751 350.637277 
L 243.846537 507.531426 
L 282.913422 708.993957 
L 471.563119 611.723536 
L 664.41062 623.759084 
L 710.140484 435.931321 
" clip-path="url(#pbe9c94e3c6)" style="fill: none; stroke-dasharray: 2,3.3; stroke-dashoffset: 0; stroke: #a56eff; stroke-width: 2"/>
    <defs>
     <path id="m4e99b76f3a" d="M 0 3 
C 0.795609 3 1.55874 2.683901 2.12132 2.12132 
C 2.683901 1.55874 3 0.795609 3 0 
C 3 -0.795609 2.683901 -1.55874 2.12132 -2.12132 
C 1.55874 -2.683901 0.795609 -3 0 -3 
C -0.795609 -3 -1.55874 -2.683901 -2.12132 -2.12132 
C -2.683901 -1.55874 -3 -0.795609 -3 0 
C -3 0.795609 -2.683901 1.55874 -2.12132 2.12132 
C -1.55874 2.683901 -0.795609 3 0 3 
z
" style="stroke: #a56eff"/>
    </defs>
    <g clip-path="url(#pbe9c94e3c6)">
     <use xlink:href="#m4e99b76f3a" x="710.140484" y="435.931321" style="fill: #a56eff; stroke: #a56eff"/>
     <use xlink:href="#m4e99b76f3a" x="583.301986" y="316.161782" style="fill: #a56eff; stroke: #a56eff"/>
     <use xlink:href="#m4e99b76f3a" x="447.621738" y="395.917425" style="fill: #a56eff; stroke: #a56eff"/>
     <use xlink:href="#m4e99b76f3a" x="308.862157" y="207.813212" style="fill: #a56eff; stroke: #a56eff"/>
     <use xlink:href="#m4e99b76f3a" x="206.222751" y="350.637277" style="fill: #a56eff; stroke: #a56eff"/>
     <use xlink:href="#m4e99b76f3a" x="243.846537" y="507.531426" style="fill: #a56eff; stroke: #a56eff"/>
     <use xlink:href="#m4e99b76f3a" x="282.913422" y="708.993957" style="fill: #a56eff; stroke: #a56eff"/>
     <use xlink:href="#m4e99b76f3a" x="471.563119" y="611.723536" style="fill: #a56eff; stroke: #a56eff"/>
     <use xlink:href="#m4e99b76f3a" x="664.41062" y="623.759084" style="fill: #a56eff; stroke: #a56eff"/>
     <use xlink:href="#m4e99b76f3a" x="710.140484" y="435.931321" style="fill: #a56eff; stroke: #a56eff"/>
    </g>
   </g>
   <g id="line2d_19">
    <path d="M 724.703438 435.931321 
L 669.772372 243.604513 
L 470.920093 263.785888 
L 339.316368 260.561453 
L 269.399631 373.631781 
L 265.231946 499.747773 
L 291.955169 693.333192 
L 458.035132 535.002509 
L 679.244286 636.206008 
L 724.703438 435.931321 
" clip-path="url(#pbe9c94e3c6)" style="fill: none; stroke-dasharray: 2,3.3; stroke-dashoffset: 0; stroke: #003a6d; stroke-width: 2"/>
    <defs>
     <path id="m1f3c67acad" d="M 0 3 
C 0.795609 3 1.55874 2.683901 2.12132 2.12132 
C 2.683901 1.55874 3 0.795609 3 0 
C 3 -0.795609 2.683901 -1.55874 2.12132 -2.12132 
C 1.55874 -2.683901 0.795609 -3 0 -3 
C -0.795609 -3 -1.55874 -2.683901 -2.12132 -2.12132 
C -2.683901 -1.55874 -3 -0.795609 -3 0 
C -3 0.795609 -2.683901 1.55874 -2.12132 2.12132 
C -1.55874 2.683901 -0.795609 3 0 3 
z
" style="stroke: #003a6d"/>
    </defs>
    <g clip-path="url(#pbe9c94e3c6)">
     <use xlink:href="#m1f3c67acad" x="724.703438" y="435.931321" style="fill: #003a6d; stroke: #003a6d"/>
     <use xlink:href="#m1f3c67acad" x="669.772372" y="243.604513" style="fill: #003a6d; stroke: #003a6d"/>
     <use xlink:href="#m1f3c67acad" x="470.920093" y="263.785888" style="fill: #003a6d; stroke: #003a6d"/>
     <use xlink:href="#m1f3c67acad" x="339.316368" y="260.561453" style="fill: #003a6d; stroke: #003a6d"/>
     <use xlink:href="#m1f3c67acad" x="269.399631" y="373.631781" style="fill: #003a6d; stroke: #003a6d"/>
     <use xlink:href="#m1f3c67acad" x="265.231946" y="499.747773" style="fill: #003a6d; stroke: #003a6d"/>
     <use xlink:href="#m1f3c67acad" x="291.955169" y="693.333192" style="fill: #003a6d; stroke: #003a6d"/>
     <use xlink:href="#m1f3c67acad" x="458.035132" y="535.002509" style="fill: #003a6d; stroke: #003a6d"/>
     <use xlink:href="#m1f3c67acad" x="679.244286" y="636.206008" style="fill: #003a6d; stroke: #003a6d"/>
     <use xlink:href="#m1f3c67acad" x="724.703438" y="435.931321" style="fill: #003a6d; stroke: #003a6d"/>
    </g>
   </g>
   <g id="line2d_20">
    <path d="M 692.216849 435.931321 
L 637.683753 270.530062 
L 472.888968 252.619843 
L 402.776819 370.478178 
L 228.734964 358.831053 
L 346.868423 470.034526 
L 391.711811 520.549619 
L 495.569432 747.870098 
L 602.109221 571.482003 
L 692.216849 435.931321 
" clip-path="url(#pbe9c94e3c6)" style="fill: none; stroke-dasharray: 2,3.3; stroke-dashoffset: 0; stroke: #009d9a; stroke-width: 2"/>
    <defs>
     <path id="m3a940d3258" d="M 0 3 
C 0.795609 3 1.55874 2.683901 2.12132 2.12132 
C 2.683901 1.55874 3 0.795609 3 0 
C 3 -0.795609 2.683901 -1.55874 2.12132 -2.12132 
C 1.55874 -2.683901 0.795609 -3 0 -3 
C -0.795609 -3 -1.55874 -2.683901 -2.12132 -2.12132 
C -2.683901 -1.55874 -3 -0.795609 -3 0 
C -3 0.795609 -2.683901 1.55874 -2.12132 2.12132 
C -1.55874 2.683901 -0.795609 3 0 3 
z
" style="stroke: #009d9a"/>
    </defs>
    <g clip-path="url(#pbe9c94e3c6)">
     <use xlink:href="#m3a940d3258" x="692.216849" y="435.931321" style="fill: #009d9a; stroke: #009d9a"/>
     <use xlink:href="#m3a940d3258" x="637.683753" y="270.530062" style="fill: #009d9a; stroke: #009d9a"/>
     <use xlink:href="#m3a940d3258" x="472.888968" y="252.619843" style="fill: #009d9a; stroke: #009d9a"/>
     <use xlink:href="#m3a940d3258" x="402.776819" y="370.478178" style="fill: #009d9a; stroke: #009d9a"/>
     <use xlink:href="#m3a940d3258" x="228.734964" y="358.831053" style="fill: #009d9a; stroke: #009d9a"/>
     <use xlink:href="#m3a940d3258" x="346.868423" y="470.034526" style="fill: #009d9a; stroke: #009d9a"/>
     <use xlink:href="#m3a940d3258" x="391.711811" y="520.549619" style="fill: #009d9a; stroke: #009d9a"/>
     <use xlink:href="#m3a940d3258" x="495.569432" y="747.870098" style="fill: #009d9a; stroke: #009d9a"/>
     <use xlink:href="#m3a940d3258" x="602.109221" y="571.482003" style="fill: #009d9a; stroke: #009d9a"/>
     <use xlink:href="#m3a940d3258" x="692.216849" y="435.931321" style="fill: #009d9a; stroke: #009d9a"/>
    </g>
   </g>
   <g id="line2d_21">
    <path d="M 663.01626 435.931321 
L 490.751652 393.820734 
L 467.474562 283.326467 
L 288.445926 172.451263 
L 345.497254 401.329051 
L 228.87675 512.979982 
L 286.006651 703.636327 
L 463.712195 567.198732 
L 509.69548 493.937666 
L 663.01626 435.931321 
" clip-path="url(#pbe9c94e3c6)" style="fill: none; stroke-dasharray: 2,3.3; stroke-dashoffset: 0; stroke: #9f1853; stroke-width: 2"/>
    <defs>
     <path id="m52ec904266" d="M 0 3 
C 0.795609 3 1.55874 2.683901 2.12132 2.12132 
C 2.683901 1.55874 3 0.795609 3 0 
C 3 -0.795609 2.683901 -1.55874 2.12132 -2.12132 
C 1.55874 -2.683901 0.795609 -3 0 -3 
C -0.795609 -3 -1.55874 -2.683901 -2.12132 -2.12132 
C -2.683901 -1.55874 -3 -0.795609 -3 0 
C -3 0.795609 -2.683901 1.55874 -2.12132 2.12132 
C -1.55874 2.683901 -0.795609 3 0 3 
z
" style="stroke: #9f1853"/>
    </defs>
    <g clip-path="url(#pbe9c94e3c6)">
     <use xlink:href="#m52ec904266" x="663.01626" y="435.931321" style="fill: #9f1853; stroke: #9f1853"/>
     <use xlink:href="#m52ec904266" x="490.751652" y="393.820734" style="fill: #9f1853; stroke: #9f1853"/>
     <use xlink:href="#m52ec904266" x="467.474562" y="283.326467" style="fill: #9f1853; stroke: #9f1853"/>
     <use xlink:href="#m52ec904266" x="288.445926" y="172.451263" style="fill: #9f1853; stroke: #9f1853"/>
     <use xlink:href="#m52ec904266" x="345.497254" y="401.329051" style="fill: #9f1853; stroke: #9f1853"/>
     <use xlink:href="#m52ec904266" x="228.87675" y="512.979982" style="fill: #9f1853; stroke: #9f1853"/>
     <use xlink:href="#m52ec904266" x="286.006651" y="703.636327" style="fill: #9f1853; stroke: #9f1853"/>
     <use xlink:href="#m52ec904266" x="463.712195" y="567.198732" style="fill: #9f1853; stroke: #9f1853"/>
     <use xlink:href="#m52ec904266" x="509.69548" y="493.937666" style="fill: #9f1853; stroke: #9f1853"/>
     <use xlink:href="#m52ec904266" x="663.01626" y="435.931321" style="fill: #9f1853; stroke: #9f1853"/>
    </g>
   </g>
   <g id="line2d_22">
    <path d="M 704.165939 435.931321 
L 527.906895 362.643783 
L 443.191769 421.041027 
L 323.153519 232.566576 
L 331.387487 396.193516 
L 223.669868 514.875133 
L 292.609506 692.199847 
L 473.424195 622.278221 
L 622.134671 588.28535 
L 704.165939 435.931321 
" clip-path="url(#pbe9c94e3c6)" style="fill: none; stroke-dasharray: 2,3.3; stroke-dashoffset: 0; stroke: #707070; stroke-width: 2"/>
    <defs>
     <path id="m434444809d" d="M 0 3 
C 0.795609 3 1.55874 2.683901 2.12132 2.12132 
C 2.683901 1.55874 3 0.795609 3 0 
C 3 -0.795609 2.683901 -1.55874 2.12132 -2.12132 
C 1.55874 -2.683901 0.795609 -3 0 -3 
C -0.795609 -3 -1.55874 -2.683901 -2.12132 -2.12132 
C -2.683901 -1.55874 -3 -0.795609 -3 0 
C -3 0.795609 -2.683901 1.55874 -2.12132 2.12132 
C -1.55874 2.683901 -0.795609 3 0 3 
z
" style="stroke: #707070"/>
    </defs>
    <g clip-path="url(#pbe9c94e3c6)">
     <use xlink:href="#m434444809d" x="704.165939" y="435.931321" style="fill: #707070; stroke: #707070"/>
     <use xlink:href="#m434444809d" x="527.906895" y="362.643783" style="fill: #707070; stroke: #707070"/>
     <use xlink:href="#m434444809d" x="443.191769" y="421.041027" style="fill: #707070; stroke: #707070"/>
     <use xlink:href="#m434444809d" x="323.153519" y="232.566576" style="fill: #707070; stroke: #707070"/>
     <use xlink:href="#m434444809d" x="331.387487" y="396.193516" style="fill: #707070; stroke: #707070"/>
     <use xlink:href="#m434444809d" x="223.669868" y="514.875133" style="fill: #707070; stroke: #707070"/>
     <use xlink:href="#m434444809d" x="292.609506" y="692.199847" style="fill: #707070; stroke: #707070"/>
     <use xlink:href="#m434444809d" x="473.424195" y="622.278221" style="fill: #707070; stroke: #707070"/>
     <use xlink:href="#m434444809d" x="622.134671" y="588.28535" style="fill: #707070; stroke: #707070"/>
     <use xlink:href="#m434444809d" x="704.165939" y="435.931321" style="fill: #707070; stroke: #707070"/>
    </g>
   </g>
   <g id="line2d_23">
    <path d="M 542.703858 435.931321 
L 550.200042 343.937612 
L 461.075718 319.616115 
L 325.195142 236.102771 
L 293.814285 382.517989 
L 263.651286 500.323087 
L 292.252595 692.818035 
L 470.43709 605.337509 
L 613.531144 581.066134 
L 542.703858 435.931321 
" clip-path="url(#pbe9c94e3c6)" style="fill: none; stroke-dasharray: 2,3.3; stroke-dashoffset: 0; stroke: #0f62fe; stroke-width: 2"/>
    <defs>
     <path id="m748e992d0a" d="M 0 3 
C 0.795609 3 1.55874 2.683901 2.12132 2.12132 
C 2.683901 1.55874 3 0.795609 3 0 
C 3 -0.795609 2.683901 -1.55874 2.12132 -2.12132 
C 1.55874 -2.683901 0.795609 -3 0 -3 
C -0.795609 -3 -1.55874 -2.683901 -2.12132 -2.12132 
C -2.683901 -1.55874 -3 -0.795609 -3 0 
C -3 0.795609 -2.683901 1.55874 -2.12132 2.12132 
C -1.55874 2.683901 -0.795609 3 0 3 
z
" style="stroke: #0f62fe"/>
    </defs>
    <g clip-path="url(#pbe9c94e3c6)">
     <use xlink:href="#m748e992d0a" x="542.703858" y="435.931321" style="fill: #0f62fe; stroke: #0f62fe"/>
     <use xlink:href="#m748e992d0a" x="550.200042" y="343.937612" style="fill: #0f62fe; stroke: #0f62fe"/>
     <use xlink:href="#m748e992d0a" x="461.075718" y="319.616115" style="fill: #0f62fe; stroke: #0f62fe"/>
     <use xlink:href="#m748e992d0a" x="325.195142" y="236.102771" style="fill: #0f62fe; stroke: #0f62fe"/>
     <use xlink:href="#m748e992d0a" x="293.814285" y="382.517989" style="fill: #0f62fe; stroke: #0f62fe"/>
     <use xlink:href="#m748e992d0a" x="263.651286" y="500.323087" style="fill: #0f62fe; stroke: #0f62fe"/>
     <use xlink:href="#m748e992d0a" x="292.252595" y="692.818035" style="fill: #0f62fe; stroke: #0f62fe"/>
     <use xlink:href="#m748e992d0a" x="470.43709" y="605.337509" style="fill: #0f62fe; stroke: #0f62fe"/>
     <use xlink:href="#m748e992d0a" x="613.531144" y="581.066134" style="fill: #0f62fe; stroke: #0f62fe"/>
     <use xlink:href="#m748e992d0a" x="542.703858" y="435.931321" style="fill: #0f62fe; stroke: #0f62fe"/>
    </g>
   </g>
   <g id="line2d_24">
    <path d="M 626.272807 435.931321 
L 580.262012 318.712624 
L 464.357176 301.006039 
L 315.667567 219.600528 
L 319.417965 391.836966 
L 193.637315 525.806088 
L 290.765466 695.393819 
L 474.690978 629.462502 
L 654.917074 615.793052 
L 626.272807 435.931321 
" clip-path="url(#pbe9c94e3c6)" style="fill: none; stroke-dasharray: 7.4,3.2; stroke-dashoffset: 0; stroke: #0f62fe; stroke-width: 2"/>
    <g clip-path="url(#pbe9c94e3c6)">
     <use xlink:href="#m748e992d0a" x="626.272807" y="435.931321" style="fill: #0f62fe; stroke: #0f62fe"/>
     <use xlink:href="#m748e992d0a" x="580.262012" y="318.712624" style="fill: #0f62fe; stroke: #0f62fe"/>
     <use xlink:href="#m748e992d0a" x="464.357176" y="301.006039" style="fill: #0f62fe; stroke: #0f62fe"/>
     <use xlink:href="#m748e992d0a" x="315.667567" y="219.600528" style="fill: #0f62fe; stroke: #0f62fe"/>
     <use xlink:href="#m748e992d0a" x="319.417965" y="391.836966" style="fill: #0f62fe; stroke: #0f62fe"/>
     <use xlink:href="#m748e992d0a" x="193.637315" y="525.806088" style="fill: #0f62fe; stroke: #0f62fe"/>
     <use xlink:href="#m748e992d0a" x="290.765466" y="695.393819" style="fill: #0f62fe; stroke: #0f62fe"/>
     <use xlink:href="#m748e992d0a" x="474.690978" y="629.462502" style="fill: #0f62fe; stroke: #0f62fe"/>
     <use xlink:href="#m748e992d0a" x="654.917074" y="615.793052" style="fill: #0f62fe; stroke: #0f62fe"/>
     <use xlink:href="#m748e992d0a" x="626.272807" y="435.931321" style="fill: #0f62fe; stroke: #0f62fe"/>
    </g>
   </g>
   <g id="line2d_25">
    <path d="M 758.086209 435.931321 
L 628.226054 278.466014 
L 488.14775 166.082991 
L 308.862157 207.813212 
L 190.606884 344.953567 
L 167.695883 535.247997 
L 284.519522 706.21211 
L 483.90252 681.703756 
L 658.18048 618.531376 
L 758.086209 435.931321 
" clip-path="url(#pbe9c94e3c6)" style="fill: none; stroke-dasharray: 12.8,3.2,2,3.2; stroke-dashoffset: 0; stroke: #0f62fe; stroke-width: 2"/>
    <g clip-path="url(#pbe9c94e3c6)">
     <use xlink:href="#m748e992d0a" x="758.086209" y="435.931321" style="fill: #0f62fe; stroke: #0f62fe"/>
     <use xlink:href="#m748e992d0a" x="628.226054" y="278.466014" style="fill: #0f62fe; stroke: #0f62fe"/>
     <use xlink:href="#m748e992d0a" x="488.14775" y="166.082991" style="fill: #0f62fe; stroke: #0f62fe"/>
     <use xlink:href="#m748e992d0a" x="308.862157" y="207.813212" style="fill: #0f62fe; stroke: #0f62fe"/>
     <use xlink:href="#m748e992d0a" x="190.606884" y="344.953567" style="fill: #0f62fe; stroke: #0f62fe"/>
     <use xlink:href="#m748e992d0a" x="167.695883" y="535.247997" style="fill: #0f62fe; stroke: #0f62fe"/>
     <use xlink:href="#m748e992d0a" x="284.519522" y="706.21211" style="fill: #0f62fe; stroke: #0f62fe"/>
     <use xlink:href="#m748e992d0a" x="483.90252" y="681.703756" style="fill: #0f62fe; stroke: #0f62fe"/>
     <use xlink:href="#m748e992d0a" x="658.18048" y="618.531376" style="fill: #0f62fe; stroke: #0f62fe"/>
     <use xlink:href="#m748e992d0a" x="758.086209" y="435.931321" style="fill: #0f62fe; stroke: #0f62fe"/>
    </g>
   </g>
   <g id="line2d_26">
    <path d="M 752.410391 435.931321 
L 606.946233 296.321904 
L 477.48301 226.565737 
L 300.185259 192.784383 
L 142.649528 327.498517 
L 143.335112 544.114592 
L 283.567759 707.860612 
L 489.626501 714.166064 
L 658.477154 618.780314 
L 752.410391 435.931321 
" clip-path="url(#pbe9c94e3c6)" style="fill: none; stroke: #0f62fe; stroke-width: 2; stroke-linecap: square"/>
    <g clip-path="url(#pbe9c94e3c6)">
     <use xlink:href="#m748e992d0a" x="752.410391" y="435.931321" style="fill: #0f62fe; stroke: #0f62fe"/>
     <use xlink:href="#m748e992d0a" x="606.946233" y="296.321904" style="fill: #0f62fe; stroke: #0f62fe"/>
     <use xlink:href="#m748e992d0a" x="477.48301" y="226.565737" style="fill: #0f62fe; stroke: #0f62fe"/>
     <use xlink:href="#m748e992d0a" x="300.185259" y="192.784383" style="fill: #0f62fe; stroke: #0f62fe"/>
     <use xlink:href="#m748e992d0a" x="142.649528" y="327.498517" style="fill: #0f62fe; stroke: #0f62fe"/>
     <use xlink:href="#m748e992d0a" x="143.335112" y="544.114592" style="fill: #0f62fe; stroke: #0f62fe"/>
     <use xlink:href="#m748e992d0a" x="283.567759" y="707.860612" style="fill: #0f62fe; stroke: #0f62fe"/>
     <use xlink:href="#m748e992d0a" x="489.626501" y="714.166064" style="fill: #0f62fe; stroke: #0f62fe"/>
     <use xlink:href="#m748e992d0a" x="658.477154" y="618.780314" style="fill: #0f62fe; stroke: #0f62fe"/>
     <use xlink:href="#m748e992d0a" x="752.410391" y="435.931321" style="fill: #0f62fe; stroke: #0f62fe"/>
    </g>
   </g>
   <g id="patch_12">
    <path d="M 773.206209 435.931321 
C 773.206209 392.249436 764.60183 348.992303 747.885496 308.635504 
C 731.169163 268.278705 706.665965 231.607078 675.778208 200.719321 
C 644.890452 169.831564 608.218825 145.328367 567.862026 128.612033 
C 527.505227 111.895699 484.248093 103.291321 440.566209 103.291321 
C 396.884324 103.291321 353.627191 111.895699 313.270392 128.612033 
C 272.913593 145.328367 236.241966 169.831564 205.354209 200.719321 
C 174.466452 231.607078 149.963255 268.278705 133.246921 308.635504 
C 116.530587 348.992303 107.926209 392.249436 107.926209 435.931321 
C 107.926209 479.613205 116.530587 522.870339 133.246921 563.227138 
C 149.963255 603.583937 174.466452 640.255564 205.354209 671.14332 
C 236.241966 702.031077 272.913593 726.534275 313.270392 743.250608 
C 353.627191 759.966942 396.884324 768.571321 440.566209 768.571321 
C 484.248093 768.571321 527.505227 759.966942 567.862026 743.250608 
C 608.218825 726.534275 644.890452 702.031077 675.778208 671.14332 
C 706.665965 640.255564 731.169163 603.583937 747.885496 563.227138 
C 764.60183 522.870339 773.206209 479.613205 773.206209 435.931321 
" style="fill: none; stroke: #000000; stroke-width: 0.8; stroke-linejoin: miter; stroke-linecap: square"/>
   </g>
   <g id="legend_1">
    <g id="line2d_27">
     <path d="M 1025.156334 272.242883 
L 1053.156334 272.242883 
L 1081.156334 272.242883 
" style="fill: none; stroke-dasharray: 2,3.3; stroke-dashoffset: 0; stroke: #a56eff; stroke-width: 2"/>
     <g>
      <use xlink:href="#m4e99b76f3a" x="1053.156334" y="272.242883" style="fill: #a56eff; stroke: #a56eff"/>
     </g>
    </g>
    <g id="text_10">
     <!-- CROMA -->
     <g transform="translate(1103.556334 282.042883) scale(0.28 -0.28)">
      <defs>
       <path id="IBMPlexSans-Regular-52" d="M 1133 1920 
L 1133 0 
L 595 0 
L 595 4467 
L 2374 4467 
Q 2765 4467 3043 4320 
Q 3322 4173 3472 3891 
Q 3622 3610 3622 3200 
Q 3622 2714 3392 2394 
Q 3162 2074 2726 1971 
L 3750 0 
L 3142 0 
L 2176 1920 
L 1133 1920 
z
M 1133 2381 
L 2374 2381 
Q 2586 2381 2736 2454 
Q 2886 2528 2966 2672 
Q 3046 2816 3046 3021 
L 3046 3354 
Q 3046 3558 2966 3702 
Q 2886 3846 2736 3920 
Q 2586 3994 2374 3994 
L 1133 3994 
L 1133 2381 
z
" transform="scale(0.015625)"/>
      </defs>
      <use xlink:href="#IBMPlexSans-Regular-43"/>
      <use xlink:href="#IBMPlexSans-Regular-52" transform="translate(62.099991 0)"/>
      <use xlink:href="#IBMPlexSans-Regular-4f" transform="translate(126.099976 0)"/>
      <use xlink:href="#IBMPlexSans-Regular-4d" transform="translate(196.899963 0)"/>
      <use xlink:href="#IBMPlexSans-Regular-41" transform="translate(278.099945 0)"/>
     </g>
    </g>
    <g id="line2d_28">
     <path d="M 1025.156334 312.562883 
L 1053.156334 312.562883 
L 1081.156334 312.562883 
" style="fill: none; stroke-dasharray: 2,3.3; stroke-dashoffset: 0; stroke: #003a6d; stroke-width: 2"/>
     <g>
      <use xlink:href="#m1f3c67acad" x="1053.156334" y="312.562883" style="fill: #003a6d; stroke: #003a6d"/>
     </g>
    </g>
    <g id="text_11">
     <!-- DOFA -->
     <g transform="translate(1103.556334 322.362883) scale(0.28 -0.28)">
      <use xlink:href="#IBMPlexSans-Regular-44"/>
      <use xlink:href="#IBMPlexSans-Regular-4f" transform="translate(67.099991 0)"/>
      <use xlink:href="#IBMPlexSans-Regular-46" transform="translate(137.899979 0)"/>
      <use xlink:href="#IBMPlexSans-Regular-41" transform="translate(193.799973 0)"/>
     </g>
    </g>
    <g id="line2d_29">
     <path d="M 1025.156334 352.882883 
L 1053.156334 352.882883 
L 1081.156334 352.882883 
" style="fill: none; stroke-dasharray: 2,3.3; stroke-dashoffset: 0; stroke: #009d9a; stroke-width: 2"/>
     <g>
      <use xlink:href="#m3a940d3258" x="1053.156334" y="352.882883" style="fill: #009d9a; stroke: #009d9a"/>
     </g>
    </g>
    <g id="text_12">
     <!-- GFM-Swin -->
     <g transform="translate(1103.556334 362.682883) scale(0.28 -0.28)">
      <defs>
       <path id="IBMPlexSans-Regular-47" d="M 3488 0 
L 3488 653 
L 3469 653 
Q 3386 339 3062 131 
Q 2739 -77 2227 -77 
Q 1683 -77 1264 188 
Q 845 454 608 969 
Q 371 1485 371 2234 
Q 371 2976 608 3491 
Q 845 4006 1273 4275 
Q 1702 4544 2272 4544 
Q 2874 4544 3277 4272 
Q 3680 4000 3898 3565 
L 3456 3296 
Q 3302 3654 2998 3859 
Q 2694 4064 2272 4064 
Q 1882 4064 1581 3881 
Q 1280 3699 1113 3369 
Q 947 3040 947 2598 
L 947 1875 
Q 947 1434 1113 1104 
Q 1280 774 1590 588 
Q 1901 403 2323 403 
Q 2637 403 2893 512 
Q 3149 621 3305 838 
Q 3462 1056 3462 1382 
L 3462 1824 
L 2477 1824 
L 2477 2298 
L 3987 2298 
L 3987 0 
L 3488 0 
z
" transform="scale(0.015625)"/>
       <path id="IBMPlexSans-Regular-77" d="M 1082 0 
L 198 3302 
L 698 3302 
L 1050 1875 
L 1402 429 
L 1414 429 
L 1818 1875 
L 2234 3302 
L 2688 3302 
L 3117 1875 
L 3526 429 
L 3539 429 
L 3878 1875 
L 4237 3302 
L 4717 3302 
L 3840 0 
L 3206 0 
L 2746 1587 
L 2458 2592 
L 2445 2592 
L 2163 1587 
L 1702 0 
L 1082 0 
z
" transform="scale(0.015625)"/>
      </defs>
      <use xlink:href="#IBMPlexSans-Regular-47"/>
      <use xlink:href="#IBMPlexSans-Regular-46" transform="translate(69.499985 0)"/>
      <use xlink:href="#IBMPlexSans-Regular-4d" transform="translate(125.399979 0)"/>
      <use xlink:href="#IBMPlexSans-Regular-2d" transform="translate(206.59996 0)"/>
      <use xlink:href="#IBMPlexSans-Regular-53" transform="translate(246.499954 0)"/>
      <use xlink:href="#IBMPlexSans-Regular-77" transform="translate(304.599945 0)"/>
      <use xlink:href="#IBMPlexSans-Regular-69" transform="translate(381.399933 0)"/>
      <use xlink:href="#IBMPlexSans-Regular-6e" transform="translate(406.399918 0)"/>
     </g>
    </g>
    <g id="line2d_30">
     <path d="M 1025.156334 393.202883 
L 1053.156334 393.202883 
L 1081.156334 393.202883 
" style="fill: none; stroke-dasharray: 2,3.3; stroke-dashoffset: 0; stroke: #9f1853; stroke-width: 2"/>
     <g>
      <use xlink:href="#m52ec904266" x="1053.156334" y="393.202883" style="fill: #9f1853; stroke: #9f1853"/>
     </g>
    </g>
    <g id="text_13">
     <!-- Prithvi 1.0 100M -->
     <g transform="translate(1103.556334 403.002883) scale(0.28 -0.28)">
      <use xlink:href="#IBMPlexSans-Regular-50"/>
      <use xlink:href="#IBMPlexSans-Regular-72" transform="translate(60.599991 0)"/>
      <use xlink:href="#IBMPlexSans-Regular-69" transform="translate(97.299988 0)"/>
      <use xlink:href="#IBMPlexSans-Regular-74" transform="translate(122.299973 0)"/>
      <use xlink:href="#IBMPlexSans-Regular-68" transform="translate(157.399963 0)"/>
      <use xlink:href="#IBMPlexSans-Regular-76" transform="translate(214.199951 0)"/>
      <use xlink:href="#IBMPlexSans-Regular-69" transform="translate(263.399948 0)"/>
      <use xlink:href="#IBMPlexSans-Regular-20" transform="translate(288.399933 0)"/>
      <use xlink:href="#IBMPlexSans-Regular-31" transform="translate(311.999924 0)"/>
      <use xlink:href="#IBMPlexSans-Regular-2e" transform="translate(371.999908 0)"/>
      <use xlink:href="#IBMPlexSans-Regular-30" transform="translate(399.199905 0)"/>
      <use xlink:href="#IBMPlexSans-Regular-20" transform="translate(459.19989 0)"/>
      <use xlink:href="#IBMPlexSans-Regular-31" transform="translate(482.799881 0)"/>
      <use xlink:href="#IBMPlexSans-Regular-30" transform="translate(542.799866 0)"/>
      <use xlink:href="#IBMPlexSans-Regular-30" transform="translate(602.79985 0)"/>
      <use xlink:href="#IBMPlexSans-Regular-4d" transform="translate(662.799835 0)"/>
     </g>
    </g>
    <g id="line2d_31">
     <path d="M 1025.156334 433.522883 
L 1053.156334 433.522883 
L 1081.156334 433.522883 
" style="fill: none; stroke-dasharray: 2,3.3; stroke-dashoffset: 0; stroke: #707070; stroke-width: 2"/>
     <g>
      <use xlink:href="#m434444809d" x="1053.156334" y="433.522883" style="fill: #707070; stroke: #707070"/>
     </g>
    </g>
    <g id="text_14">
     <!-- SSL4EO-S12-MoCo -->
     <g transform="translate(1103.556334 443.322883) scale(0.28 -0.28)">
      <defs>
       <path id="IBMPlexSans-Regular-4c" d="M 3034 0 
L 595 0 
L 595 4467 
L 1133 4467 
L 1133 474 
L 3034 474 
L 3034 0 
z
" transform="scale(0.015625)"/>
      </defs>
      <use xlink:href="#IBMPlexSans-Regular-53"/>
      <use xlink:href="#IBMPlexSans-Regular-53" transform="translate(58.099991 0)"/>
      <use xlink:href="#IBMPlexSans-Regular-4c" transform="translate(116.199982 0)"/>
      <use xlink:href="#IBMPlexSans-Regular-34" transform="translate(166.299973 0)"/>
      <use xlink:href="#IBMPlexSans-Regular-45" transform="translate(226.299957 0)"/>
      <use xlink:href="#IBMPlexSans-Regular-4f" transform="translate(284.599945 0)"/>
      <use xlink:href="#IBMPlexSans-Regular-2d" transform="translate(355.399933 0)"/>
      <use xlink:href="#IBMPlexSans-Regular-53" transform="translate(395.299927 0)"/>
      <use xlink:href="#IBMPlexSans-Regular-31" transform="translate(453.399918 0)"/>
      <use xlink:href="#IBMPlexSans-Regular-32" transform="translate(513.399902 0)"/>
      <use xlink:href="#IBMPlexSans-Regular-2d" transform="translate(573.399887 0)"/>
      <use xlink:href="#IBMPlexSans-Regular-4d" transform="translate(613.299881 0)"/>
      <use xlink:href="#IBMPlexSans-Regular-6f" transform="translate(694.499863 0)"/>
      <use xlink:href="#IBMPlexSans-Regular-43" transform="translate(750.499847 0)"/>
      <use xlink:href="#IBMPlexSans-Regular-6f" transform="translate(812.599838 0)"/>
     </g>
    </g>
    <g id="line2d_32">
     <path d="M 1025.156334 473.842883 
L 1053.156334 473.842883 
L 1081.156334 473.842883 
" style="fill: none; stroke-dasharray: 2,3.3; stroke-dashoffset: 0; stroke: #0f62fe; stroke-width: 2"/>
     <g>
      <use xlink:href="#m748e992d0a" x="1053.156334" y="473.842883" style="fill: #0f62fe; stroke: #0f62fe"/>
     </g>
    </g>
    <g id="text_15">
     <!-- TerraMind-tiny -->
     <g transform="translate(1103.556334 483.642883) scale(0.28 -0.28)">
      <use xlink:href="#IBMPlexSans-Regular-54"/>
      <use xlink:href="#IBMPlexSans-Regular-65" transform="translate(57.199997 0)"/>
      <use xlink:href="#IBMPlexSans-Regular-72" transform="translate(112.099991 0)"/>
      <use xlink:href="#IBMPlexSans-Regular-72" transform="translate(148.799988 0)"/>
      <use xlink:href="#IBMPlexSans-Regular-61" transform="translate(185.499985 0)"/>
      <use xlink:href="#IBMPlexSans-Regular-4d" transform="translate(238.899979 0)"/>
      <use xlink:href="#IBMPlexSans-Regular-69" transform="translate(320.09996 0)"/>
      <use xlink:href="#IBMPlexSans-Regular-6e" transform="translate(345.099945 0)"/>
      <use xlink:href="#IBMPlexSans-Regular-64" transform="translate(401.899933 0)"/>
      <use xlink:href="#IBMPlexSans-Regular-2d" transform="translate(459.899918 0)"/>
      <use xlink:href="#IBMPlexSans-Regular-74" transform="translate(499.799911 0)"/>
      <use xlink:href="#IBMPlexSans-Regular-69" transform="translate(534.899902 0)"/>
      <use xlink:href="#IBMPlexSans-Regular-6e" transform="translate(559.899887 0)"/>
      <use xlink:href="#IBMPlexSans-Regular-79" transform="translate(616.699875 0)"/>
     </g>
    </g>
    <g id="line2d_33">
     <path d="M 1025.156334 514.162883 
L 1053.156334 514.162883 
L 1081.156334 514.162883 
" style="fill: none; stroke-dasharray: 7.4,3.2; stroke-dashoffset: 0; stroke: #0f62fe; stroke-width: 2"/>
     <g>
      <use xlink:href="#m748e992d0a" x="1053.156334" y="514.162883" style="fill: #0f62fe; stroke: #0f62fe"/>
     </g>
    </g>
    <g id="text_16">
     <!-- TerraMind-small -->
     <g transform="translate(1103.556334 523.962883) scale(0.28 -0.28)">
      <use xlink:href="#IBMPlexSans-Regular-54"/>
      <use xlink:href="#IBMPlexSans-Regular-65" transform="translate(57.199997 0)"/>
      <use xlink:href="#IBMPlexSans-Regular-72" transform="translate(112.099991 0)"/>
      <use xlink:href="#IBMPlexSans-Regular-72" transform="translate(148.799988 0)"/>
      <use xlink:href="#IBMPlexSans-Regular-61" transform="translate(185.499985 0)"/>
      <use xlink:href="#IBMPlexSans-Regular-4d" transform="translate(238.899979 0)"/>
      <use xlink:href="#IBMPlexSans-Regular-69" transform="translate(320.09996 0)"/>
      <use xlink:href="#IBMPlexSans-Regular-6e" transform="translate(345.099945 0)"/>
      <use xlink:href="#IBMPlexSans-Regular-64" transform="translate(401.899933 0)"/>
      <use xlink:href="#IBMPlexSans-Regular-2d" transform="translate(459.899918 0)"/>
      <use xlink:href="#IBMPlexSans-Regular-73" transform="translate(499.799911 0)"/>
      <use xlink:href="#IBMPlexSans-Regular-6d" transform="translate(548.499908 0)"/>
      <use xlink:href="#IBMPlexSans-Regular-61" transform="translate(635.799896 0)"/>
      <use xlink:href="#IBMPlexSans-Regular-6c" transform="translate(689.19989 0)"/>
      <use xlink:href="#IBMPlexSans-Regular-6c" transform="translate(716.399887 0)"/>
     </g>
    </g>
    <g id="line2d_34">
     <path d="M 1025.156334 554.482883 
L 1053.156334 554.482883 
L 1081.156334 554.482883 
" style="fill: none; stroke-dasharray: 12.8,3.2,2,3.2; stroke-dashoffset: 0; stroke: #0f62fe; stroke-width: 2"/>
     <g>
      <use xlink:href="#m748e992d0a" x="1053.156334" y="554.482883" style="fill: #0f62fe; stroke: #0f62fe"/>
     </g>
    </g>
    <g id="text_17">
     <!-- TerraMind-base -->
     <g transform="translate(1103.556334 564.282883) scale(0.28 -0.28)">
      <defs>
       <path id="IBMPlexSans-Regular-62" d="M 544 0 
L 544 4736 
L 1056 4736 
L 1056 2765 
L 1082 2765 
Q 1210 3078 1459 3228 
Q 1709 3379 2048 3379 
Q 2464 3379 2765 3168 
Q 3066 2957 3229 2569 
Q 3392 2182 3392 1651 
Q 3392 1126 3229 736 
Q 3066 346 2765 134 
Q 2464 -77 2048 -77 
Q 1709 -77 1469 76 
Q 1229 230 1082 538 
L 1056 538 
L 1056 0 
L 544 0 
z
M 1907 384 
Q 2342 384 2592 656 
Q 2842 928 2842 1370 
L 2842 1933 
Q 2842 2374 2592 2646 
Q 2342 2918 1907 2918 
Q 1677 2918 1481 2835 
Q 1286 2752 1171 2611 
Q 1056 2470 1056 2285 
L 1056 1056 
Q 1056 845 1171 694 
Q 1286 544 1481 464 
Q 1677 384 1907 384 
z
" transform="scale(0.015625)"/>
      </defs>
      <use xlink:href="#IBMPlexSans-Regular-54"/>
      <use xlink:href="#IBMPlexSans-Regular-65" transform="translate(57.199997 0)"/>
      <use xlink:href="#IBMPlexSans-Regular-72" transform="translate(112.099991 0)"/>
      <use xlink:href="#IBMPlexSans-Regular-72" transform="translate(148.799988 0)"/>
      <use xlink:href="#IBMPlexSans-Regular-61" transform="translate(185.499985 0)"/>
      <use xlink:href="#IBMPlexSans-Regular-4d" transform="translate(238.899979 0)"/>
      <use xlink:href="#IBMPlexSans-Regular-69" transform="translate(320.09996 0)"/>
      <use xlink:href="#IBMPlexSans-Regular-6e" transform="translate(345.099945 0)"/>
      <use xlink:href="#IBMPlexSans-Regular-64" transform="translate(401.899933 0)"/>
      <use xlink:href="#IBMPlexSans-Regular-2d" transform="translate(459.899918 0)"/>
      <use xlink:href="#IBMPlexSans-Regular-62" transform="translate(499.799911 0)"/>
      <use xlink:href="#IBMPlexSans-Regular-61" transform="translate(557.799896 0)"/>
      <use xlink:href="#IBMPlexSans-Regular-73" transform="translate(611.19989 0)"/>
      <use xlink:href="#IBMPlexSans-Regular-65" transform="translate(659.899887 0)"/>
     </g>
    </g>
    <g id="line2d_35">
     <path d="M 1025.156334 594.802883 
L 1053.156334 594.802883 
L 1081.156334 594.802883 
" style="fill: none; stroke: #0f62fe; stroke-width: 2; stroke-linecap: square"/>
     <g>
      <use xlink:href="#m748e992d0a" x="1053.156334" y="594.802883" style="fill: #0f62fe; stroke: #0f62fe"/>
     </g>
    </g>
    <g id="text_18">
     <!-- TerraMind-large -->
     <g transform="translate(1103.556334 604.602883) scale(0.28 -0.28)">
      <defs>
       <path id="IBMPlexSans-Regular-67" d="M 3328 -365 
Q 3328 -704 3149 -925 
Q 2970 -1146 2614 -1251 
Q 2259 -1357 1728 -1357 
Q 1216 -1357 893 -1261 
Q 570 -1165 422 -982 
Q 275 -800 275 -544 
Q 275 -275 416 -121 
Q 557 32 800 96 
L 800 166 
Q 659 237 582 349 
Q 506 461 506 627 
Q 506 877 666 1008 
Q 826 1139 1075 1203 
L 1075 1229 
Q 781 1370 617 1632 
Q 454 1894 454 2240 
Q 454 2579 608 2835 
Q 762 3091 1043 3235 
Q 1325 3379 1696 3379 
Q 1875 3379 2032 3347 
Q 2189 3315 2323 3251 
L 2323 3309 
Q 2323 3501 2412 3625 
Q 2502 3750 2707 3750 
L 3200 3750 
L 3200 3302 
L 2573 3302 
L 2573 3091 
Q 2752 2938 2851 2720 
Q 2950 2502 2950 2240 
Q 2950 1907 2796 1648 
Q 2643 1389 2361 1245 
Q 2080 1101 1702 1101 
Q 1619 1101 1536 1110 
Q 1453 1120 1382 1133 
Q 1222 1088 1084 1001 
Q 947 915 947 762 
Q 947 614 1088 563 
Q 1229 512 1453 512 
L 2157 512 
Q 2771 512 3049 278 
Q 3328 45 3328 -365 
z
M 2848 -403 
Q 2848 -205 2697 -86 
Q 2547 32 2163 32 
L 1062 32 
Q 902 -38 828 -150 
Q 755 -262 755 -416 
Q 755 -634 918 -787 
Q 1082 -941 1472 -941 
L 1946 -941 
Q 2374 -941 2611 -806 
Q 2848 -672 2848 -403 
z
M 1702 1510 
Q 2029 1510 2221 1667 
Q 2413 1824 2413 2150 
L 2413 2330 
Q 2413 2656 2221 2813 
Q 2029 2970 1702 2970 
Q 1376 2970 1184 2813 
Q 992 2656 992 2330 
L 992 2150 
Q 992 1824 1184 1667 
Q 1376 1510 1702 1510 
z
" transform="scale(0.015625)"/>
      </defs>
      <use xlink:href="#IBMPlexSans-Regular-54"/>
      <use xlink:href="#IBMPlexSans-Regular-65" transform="translate(57.199997 0)"/>
      <use xlink:href="#IBMPlexSans-Regular-72" transform="translate(112.099991 0)"/>
      <use xlink:href="#IBMPlexSans-Regular-72" transform="translate(148.799988 0)"/>
      <use xlink:href="#IBMPlexSans-Regular-61" transform="translate(185.499985 0)"/>
      <use xlink:href="#IBMPlexSans-Regular-4d" transform="translate(238.899979 0)"/>
      <use xlink:href="#IBMPlexSans-Regular-69" transform="translate(320.09996 0)"/>
      <use xlink:href="#IBMPlexSans-Regular-6e" transform="translate(345.099945 0)"/>
      <use xlink:href="#IBMPlexSans-Regular-64" transform="translate(401.899933 0)"/>
      <use xlink:href="#IBMPlexSans-Regular-2d" transform="translate(459.899918 0)"/>
      <use xlink:href="#IBMPlexSans-Regular-6c" transform="translate(499.799911 0)"/>
      <use xlink:href="#IBMPlexSans-Regular-61" transform="translate(526.999908 0)"/>
      <use xlink:href="#IBMPlexSans-Regular-72" transform="translate(580.399902 0)"/>
      <use xlink:href="#IBMPlexSans-Regular-67" transform="translate(617.099899 0)"/>
      <use xlink:href="#IBMPlexSans-Regular-65" transform="translate(669.899887 0)"/>
     </g>
    </g>
   </g>
  </g>
 </g>
 <defs>
  <clipPath id="pbe9c94e3c6">
   <path d="M 773.206209 435.931321 
C 773.206209 392.249436 764.60183 348.992303 747.885496 308.635504 
C 731.169163 268.278705 706.665965 231.607078 675.778208 200.719321 
C 644.890452 169.831564 608.218825 145.328367 567.862026 128.612033 
C 527.505227 111.895699 484.248093 103.291321 440.566209 103.291321 
C 396.884324 103.291321 353.627191 111.895699 313.270392 128.612033 
C 272.913593 145.328367 236.241966 169.831564 205.354209 200.719321 
C 174.466452 231.607078 149.963255 268.278705 133.246921 308.635504 
C 116.530587 348.992303 107.926209 392.249436 107.926209 435.931321 
C 107.926209 479.613205 116.530587 522.870339 133.246921 563.227138 
C 149.963255 603.583937 174.466452 640.255564 205.354209 671.14332 
C 236.241966 702.031077 272.913593 726.534275 313.270392 743.250608 
C 353.627191 759.966942 396.884324 768.571321 440.566209 768.571321 
C 484.248093 768.571321 527.505227 759.966942 567.862026 743.250608 
C 608.218825 726.534275 644.890452 702.031077 675.778208 671.14332 
C 706.665965 640.255564 731.169163 603.583937 747.885496 563.227138 
C 764.60183 522.870339 773.206209 479.613205 773.206209 435.931321 
M 440.566209 435.931321 
C 440.566209 435.931321 440.566209 435.931321 440.566209 435.931321 
C 440.566209 435.931321 440.566209 435.931321 440.566209 435.931321 
C 440.566209 435.931321 440.566209 435.931321 440.566209 435.931321 
C 440.566209 435.931321 440.566209 435.931321 440.566209 435.931321 
C 440.566209 435.931321 440.566209 435.931321 440.566209 435.931321 
C 440.566209 435.931321 440.566209 435.931321 440.566209 435.931321 
C 440.566209 435.931321 440.566209 435.931321 440.566209 435.931321 
C 440.566209 435.931321 440.566209 435.931321 440.566209 435.931321 
C 440.566209 435.931321 440.566209 435.931321 440.566209 435.931321 
C 440.566209 435.931321 440.566209 435.931321 440.566209 435.931321 
C 440.566209 435.931321 440.566209 435.931321 440.566209 435.931321 
C 440.566209 435.931321 440.566209 435.931321 440.566209 435.931321 
C 440.566209 435.931321 440.566209 435.931321 440.566209 435.931321 
C 440.566209 435.931321 440.566209 435.931321 440.566209 435.931321 
C 440.566209 435.931321 440.566209 435.931321 440.566209 435.931321 
C 440.566209 435.931321 440.566209 435.931321 440.566209 435.931321 
z
"/>
  </clipPath>
 </defs>
</svg>
